<svg xmlns="http://www.w3.org/2000/svg" width="639.258" height="824.155" viewBox="0 0 639.258 824.155">
  <g id="Group_1271" data-name="Group 1271" transform="translate(-1353.013 -625.045)">
    <g id="Group_967" data-name="Group 967" transform="translate(1359.323 696.2)">
      <path id="Path_14410" data-name="Path 14410" d="M1945.322,698.548c-34.025,2-68.425,8.192-102.944,7.544-38.129-.714-76.909,13.274-115.477,3.964-33.306-8.04-67.387-21.746-101.789-19.636-9.384.575-18.731,2.144-27.67,7.513-7.251,4.356-12.262,14.435-20.138,12.99-6.141-1.127-11.817-9.372-18.149-11.083-7.109-1.92-14.574.189-21.734-.877-28.762-4.281-56.789,4.613-85.269,3.464-13.482-.545-26.713.746-40.008.11-9.756-.465-31.066-7.079-40.005.118-11.859,9.547-4.946,43.3-5.006,61.93-.03,9.371-2.542,31.62-.444,39.72,2.836,10.962,10.46,3.567,14.624,9.3-5.551,4.97-11.4,6.669-17.268,9.831-1.553,7.018-6.327,29.88-3.846,37.174,2.829,8.317,15.505,4.349,19.793,3.259,18.349-4.667,38.724,1.142,58.017,3.643,53.287,6.909,108.04,2.025,161.656,8.291,23.138,2.7,46.48-1.577,69.822-.635,29.156,1.176,57.41-10.029,86.445-11.662,31.053-1.746,61.657-4.036,92.9-3.539,19.89.317,40.361,3.615,60.83,2.448,16.08-.915,32.755-1.841,48.689,1.882,5.189,1.213,15.2,9.085,19.761,2.174,4.325-6.549,3.945-27.642,4.094-37.369.165-10.78.656-32.786-3.043-39.472-1.995-3.606-8.427,3.613-8.734-5.881s7.322-3.193,8.889-6.463c2.83-5.9.746-26.747-2.5-32.594-3.929-7.085-15.579-5.717-20.612-6.389-3.714-.5-7.13.682-10.274-2.579,6.943-16.757,33.723-2.166,34.936-22.411C1982.367,688.31,1953.193,698.086,1945.322,698.548Z" transform="translate(-1359.323 -690.201)" fill="#c18156"/>
      <g id="Group_965" data-name="Group 965" transform="translate(0.176)" opacity="0.24">
        <path id="Path_14411" data-name="Path 14411" d="M1969.762,842.584c-19.927-1.946-38.2-10.271-58.146-12.128-27.514-2.562-54.713-4.991-82.378-4.894-29.318.1-58.908-1.518-88.039.686-26.285,1.988-51.329,8.333-77.571,11.176-26.9,2.915-56.446,2.843-83.4-1.506-32.35-5.22-64.3-26.771-97.3-16.833-13.456,4.052-25.343,10.889-39.24,13.946a286.59,286.59,0,0,1-39.023,5.58c-10.094.793-20.58-.259-30.634.331-4.268.25-9.574,1.2-14.447,1.245-.189,3.664-.054,6.812.621,8.8,2.83,8.317,15.506,4.349,19.793,3.259,18.35-4.667,38.725,1.142,58.017,3.643,53.287,6.91,108.04,2.025,161.656,8.29,23.138,2.7,46.48-1.576,69.823-.633,29.156,1.176,57.41-10.03,86.444-11.662,31.053-1.746,61.657-4.036,92.9-3.539,19.89.317,40.361,3.615,60.831,2.448,16.079-.915,32.754-1.841,48.687,1.882,5.189,1.213,15.2,9.085,19.762,2.174,1.479-2.239,2.407-6.177,2.994-10.778C1977.064,844.122,1972.257,842.828,1969.762,842.584Z" transform="translate(-1359.499 -678.574)" fill="#da9859"/>
        <path id="Path_14412" data-name="Path 14412" d="M1957.4,781.761c-10.119.549-22.246-1.366-31.929,1.158,12.6,3.162,26.061,4.965,38.8,7.271a145.751,145.751,0,0,1,17.558,4.038c-.377-4.792-1.02-9.026-2.093-11.757C1972.1,782.2,1964.216,781.39,1957.4,781.761Z" transform="translate(-1359.499 -681.789)" fill="#da9859"/>
        <path id="Path_14413" data-name="Path 14413" d="M1439.517,744.886c26.282,6.035,56.122,13.656,83.336,14.754,14.774.6,26.641.271,39.988-2.461,7.594-1.554,31.144-4.6,33.975-11.529a88.794,88.794,0,0,0-12.936.169c-32.334,1.7-65.042,1.379-95.548-11.392-13.093-5.481-25.183-13.74-38.052-20.3-5.44-2.775-17.149-6.923-24.533-12.234-4.536.083-9.066.1-13.6-.12-9.757-.465-31.067-7.079-40.006.118-6.989,5.626-7.456,19.659-6.675,34.049C1385.026,729.959,1427.244,742.069,1439.517,744.886Z" transform="translate(-1359.499 -689.433)" fill="#da9859"/>
        <path id="Path_14414" data-name="Path 14414" d="M1947.456,739.211c-18.508-1.606-38.106-5.388-56.683-3.982-27.908,2.112-55.475,5.4-83.43,8.113-52.722,5.113-109.448,1.091-157.86,25.374-20.937,10.5-29.678,33.154-52.6,41.715-24.775,9.253-50.013-3.051-74.509-8.733-28.789-6.678-58.055-13.026-87.48-15.553-15.289-1.313-30.8-.412-46.187-1.03-5.979-.24-15.7-1.245-22.746-.548-.217,6.363-.148,12.233.73,15.623,2.836,10.961,10.461,3.566,14.624,9.3-5.551,4.97-11.4,6.669-17.268,9.831-.819,3.7-2.533,11.811-3.608,19.719,2.138.248,4.207.531,5.856.6,11.2.452,21.405-.454,32.188-1.143,29.53-1.885,56.357-7.465,83.7-19.226,29.161-12.543,59.205,14.063,88.545,15.577,31.82,1.642,64.419,5.329,95.689,2.412,17.085-1.593,34.048-4.862,51.152-7.243,22.071-3.072,44.651-2.251,66.573-5.918,22.653-3.789,46.537-.185,69.361-2.478,24.288-2.442,46.295,5.479,70.138,10.55,15.542,3.307,31.47,3.922,47.114,6.773,2.406.439,7.24.957,11.164,2.235.2-4.686.226-9.311.257-13.039-5.347-1.03-11.254-1.447-15.411-2.584-9.054-2.476-17.844-6.51-27.076-7.653-18.507-2.289-36.755-1.745-54.979-4.663-40.895-6.552-80.756,3.392-122.222.043-21.081-1.7-40.589-10.816-60.918-14.547-5.377-.986-15.119.072-18.87-4.411-5.341-6.383,1.762-11.772,7.778-13.97,7.164-2.617,16.728-2,24.581-2.629,13.221-1.058,26.5-2.917,39.83-4.124,35.091-3.176,69.533-11.333,104.74-13.545,27.295-1.715,53.493-.715,80.644.849,13.418.772,26.875-1.019,40.226-2.005-.455-7.322-1.889-15.1-3.676-18.323a8.752,8.752,0,0,0-.558-.869C1966.408,741.092,1953.374,739.724,1947.456,739.211Z" transform="translate(-1359.499 -686.084)" fill="#da9859"/>
        <path id="Path_14415" data-name="Path 14415" d="M1933.268,764.56c-23.252.993-46.375.81-69.477,4.329-18.124,2.762-36.152,1.824-54.135,3.7-29.206,3.051-58.418,5.476-87.072,9.728-8.191,1.215-17.393.159-25.134,2.183,2.667,8.547,28.339,11.537,36.277,13.529,14.391,3.613,28.231,8.536,43.385,9.132,30.871,1.215,59.764-6.555,91.376-5.279,25.766,1.04,51.51,3.1,76.5,7.936,12.19,2.361,23.834,6.021,36.4,7.851l.888.131c.051-3.821.081-8.3-.02-12.792-14.817-3.988-28.167-9.369-44.1-10.914-17.822-1.728-35.848-5.324-53.9-6.248-31.523-1.612-59.789,7.6-90.5,9.208-11.132.582-28.434,2.444-38.986-1.531.331-5.869,31.428-6.9,38.221-8.281,14.5-2.951,28.929-8.812,43.542-9.515,37.7-1.815,75.833,2.746,113.144-1.056,7.085-.723,13.831-1.2,20.8-1.321.644-6.994,7.384-1.719,8.847-4.77a20.715,20.715,0,0,0,1.285-7.366C1964.258,762.655,1949.236,763.878,1933.268,764.56Z" transform="translate(-1359.499 -683.493)" fill="#da9859"/>
        <path id="Path_14416" data-name="Path 14416" d="M1945.322,698.548c-34.026,2-68.426,8.192-102.945,7.544-38.129-.714-76.909,13.274-115.476,3.964-33.307-8.04-67.388-21.746-101.79-19.636-9.383.575-18.73,2.144-27.669,7.513-7.251,4.356-12.263,14.435-20.138,12.99-6.142-1.127-11.818-9.372-18.15-11.083-7.109-1.92-14.574.189-21.734-.877-28.762-4.281-56.788,4.613-85.269,3.464-3.823-.155-7.625-.155-11.414-.1,6.138,3.512,12.046,7.526,17.581,10.642,13.459,7.579,25.216,11.676,39.86,16.466,36.561,11.956,75.119,6.306,112.726,10.87,5.3.642,17.956,2.222,12.109,8.679-2.215,2.447-16.93,3.83-20.944,4.638-19.725,3.972-37.227,13.219-58.377,14.195-34.457,1.589-65.716-6.264-99.079-13.191-18.308-3.8-36.851-8-55.615-7.769-7.57.093-15.111,1.668-22.68,2.136.436,5.709.828,11.093.814,15.594-.01,3.064-.285,7.509-.578,12.384,22.467-4.312,64.208.925,71.732,2.669,29.259,6.784,58.308,12.469,87.637,19.252,13.882,3.21,28.48,7.64,42.524,9,16.381,1.591,24.834-2.467,36.417-12.566,20.662-18.016,36.808-40.258,65.952-45.432,14.246-2.529,28.874-3.025,43.526-3.771,15.967-.812,31.246-4.669,47.031-6.293,29.843-3.07,60.5-.566,90.306-4.509,30.667-4.058,62.389,1.495,93.281-2.667,1.03-.139,2.034-.277,3.023-.411,9.059-11.138,31.771-.32,32.886-18.928C1982.367,688.31,1953.192,698.086,1945.322,698.548Z" transform="translate(-1359.499 -690.201)" fill="#da9859"/>
      </g>
      <g id="Group_966" data-name="Group 966" transform="translate(0 7.931)" opacity="0.5">
        <path id="Path_14417" data-name="Path 14417" d="M1978.988,785.265c-1.995-3.606-8.427,3.612-8.734-5.881s7.322-3.193,8.89-6.463c2.829-5.9.745-26.747-2.5-32.594a9.014,9.014,0,0,0-2.256-2.66l.009.033c1.654,5.882.3,18.91,1.56,25.271-13.749-9.347-13.114,32.828,0,29.333.367,12.553,1.47,24.534,1,37.047-.7,18.664-2.607,15.419-11.11,17.333-12.489,2.81-24.055,6.877-37.583,4.7-72.912-11.711-154.652-36.444-226.079,3.774-28.692,16.156-64.385,1.327-94.124,1.318-18.049-.005-36.68-4.881-54.565,0-14.954,4.082-26.855-1.906-41.738-3.391-32.128-3.205-63.843-5.728-95.648-11.87-15.917-3.073-31.476,1.517-46.955-.038a18.3,18.3,0,0,0-9.415,1.908c-.561,5.472-.653,10.414.279,13.155,2.83,8.317,15.505,4.349,19.793,3.259,18.349-4.667,38.724,1.142,58.017,3.643,53.287,6.909,108.04,2.025,161.656,8.291,23.137,2.7,46.48-1.577,69.823-.634,29.155,1.176,57.41-10.029,86.444-11.662,31.053-1.746,61.657-4.036,92.9-3.539,19.891.317,40.363,3.615,60.832,2.448,16.079-.915,32.754-1.841,48.687,1.882,5.189,1.213,15.2,9.085,19.763,2.174,4.325-6.549,3.944-27.642,4.093-37.369C1982.2,813.956,1982.688,791.95,1978.988,785.265Z" transform="translate(-1359.323 -693.763)" fill="#7c5438"/>
        <path id="Path_14418" data-name="Path 14418" d="M1937.1,734.45a67.75,67.75,0,0,0,8.893.091c7.282-15.926,33.506-1.862,34.7-21.891.51-8.515-2.537-12.995-7.086-15.185a58.72,58.72,0,0,1-1,8.423c-4.053,18-25.741,15.1-35.5,22.333C1937.008,730.405,1937.013,732.251,1937.1,734.45Z" transform="translate(-1359.323 -697.464)" fill="#7c5438"/>
      </g>
    </g>
    <g id="Group_970" data-name="Group 970" transform="translate(1353.466 894.741)">
      <path id="Path_14419" data-name="Path 14419" d="M1365.195,1156.938c.66,18.041-3.266,47.059,8.221,51.353,11.941,4.464,25.668-3.252,43.516,3.416a18.26,18.26,0,0,1-.924,6.517c-5.419.509-11.042-.153-16.458.488-2.176,1.073-1.424,7.375.58,8.348,13.572,6.581,33.658-3.58,49.257-4.281,22.954-1.03,45.658-2.609,68.581-2.519,26.19.1,52.652.152,78.911,1.7,16.766.99,33.411,4.086,50.133,5.8,20.615,2.117,41.809-4.05,62.6-3.969,53.747.211,109.156,1.391,162.168-10.827,19.917-4.59,40.949-6.16,60.939-7.814,12.308-1.018,29.481,7.946,41.056.237,19.326-12.869-11.7-20.624-9.756-25.2l2.531-2.778c20.691-.164,13.745-18.1,15.468-44.543.748-11.481,3.429-22.525,3.957-34.832.5-11.7-.225-23.1-.434-34.848-.284-15.966.7-20.448-9.079-23.762-6.912-2.345-13.764-6.19-20.733-8.49-14.09-4.65-29.122-2.573-43.243-7.372a13.977,13.977,0,0,1-6.326-3.969c20.481-2.9,40.283-2.557,61.393-2.475,10.1.039,20.514,3.946,19.181-17.735-.983-16-1.323-33.364-12.626-32.661a17.548,17.548,0,0,1-.779-6.528c9.07-.56,7.029-8.632,6.781-21.083-.228-11.543.267-23.284.4-34.844.116-10.132,2.2-25.022-3.821-30.4-5.467-4.879-17.58,1.194-23.15,2.487-28.437,6.6-58.354-1.29-87.077.986-26.8,2.123-57.018,4.477-83.589,8.917-36.118,6.036-60.817.042-93.479,9.817-36.826,11.022-73.48,24.309-110.922,30.479a178.992,178.992,0,0,1-66.641-1.477c-24.677-5.306-49.688-8.019-74.667-6.285-18.413,1.278-32.611-.153-50.387-6.709-7.819-2.883-11.571-5.512-17.166,5.122-5.158,9.8-4.885,19.806-5.369,32.038-.323,8.158-4.792,28.639-2.1,36.264,2.369,6.708,13.855,5.3,19.072,8.025,8.624,4.508,17.945,7.619,26.444,13.3-5.449,9.129-14.458-5.679-19.93-1.882-4.2,2.919-4.216,16.336-6.792,22.06,6.056,4.284,12.593,9.2,18.8,11.818-1.369,4.456-1.949,10.787-.112,15.2-5.79,3.349-14.587,3.442-20.8,5.08-4.494,1.185-18.13-1.6-21.533,3.3C1345.565,1079.27,1364.508,1138.142,1365.195,1156.938Z" transform="translate(-1353.466 -872.005)" fill="#774821"/>
      <g id="Group_968" data-name="Group 968" transform="translate(0.022)">
        <path id="Path_14420" data-name="Path 14420" d="M1975.042,939.875a210.448,210.448,0,0,0-21.436,1.605c-13.791,1.734-31.613,6.34-41.311,12.7-9.818,6.435-14.855,14.149-30.144,17.093-5.615,1.08-19.8,2.563-8.931,5.465,5.381,1.435,16.366-.2,22.329-.028,17.052.482,34.337,1.646,51.854,2.169,9.848.293,27.921.269,38.653,3.57-.991-12.14-3.159-22.48-11.933-21.934a17.5,17.5,0,0,1-.777-6.528c7.332-.453,7.4-5.819,7.029-14.437C1978.135,939.742,1976.1,939.843,1975.042,939.875Z" transform="translate(-1353.488 -865.788)" fill="#aa7548" stroke="rgba(0,0,0,0)" stroke-width="1"/>
        <path id="Path_14421" data-name="Path 14421" d="M1434.623,1106.324c28-.041,54.531,5.21,81.775,8.409,22.439,2.636,44.486,2.545,67.232,2.561,21.163.014,41.38-2.4,61.874-5.223,16.891-2.328,33.881-6.954,51.087-7.834,29.484-1.509,55.179,8.861,83.7,10.46,20.822,1.166,41.979.322,62.764-.651,22.1-1.036,45.464,1.187,67.011-2.37,17.522-2.892,35.66-2.107,53.544-3.9,5.4-.541,12.639-.455,19.167-.732.7-5.658,1.645-11.305,2.35-17.143-5.967.787-12.658,1.222-19.544,1.539-6.912.319-14,.5-19.965.806-17.225.9-34.622.027-51.847.5-20.789.568-40.628,4.578-61.391,5.861-9.924.613-19.815,1.989-29.671.913-8.464-.923-16.351-3-24.835-4.048-20.791-2.568-39.368-5.78-53.137-15.668-5.667-4.071-10.852-10.022-21.171-9.4-13.21.792-24.4,11.506-33.831,16.01-37.342,17.834-89.046,1.2-130.5,5.668-23.831,2.566-47.627-1.067-71.635-.5-18.7.446-37.495.059-56.1-.521-15.223-.475-30.45-2.114-45.627-2.5-1.9-.048-5.527.088-9.594.181,1.041,6.141,2.261,12.341,3.462,18.265C1384.417,1105.64,1409.767,1106.36,1434.623,1106.324Z" transform="translate(-1353.488 -853.745)" fill="#774821" stroke="rgba(0,0,0,0)" stroke-width="1"/>
        <path id="Path_14422" data-name="Path 14422" d="M1980.52,902.06c-4.326-.037-8.055-.2-9.025-.286a369.375,369.375,0,0,0-44.036-1.1,606.938,606.938,0,0,0-62.079,4.809c-11.511,1.48-38.967-1.317-47.537,3.716-5.269,3.094-3.834,8.857-5.311,12.856-1.606,4.35-5.074,9.162-8.76,12.949-6.191,6.361-14.731,17.063-26.125,20.062-17.747,4.669-30.25-5.692-44.654-9.89-14.534-4.237-28.139-.025-41.985,2.941-20.18,4.323-41.794,6.488-62.3,10.422-22.93,4.4-48,.852-70.956-1.721A417.1,417.1,0,0,1,1483.13,941.3c-16.45-5.016-25.819,2.2-42.21,3.742-17.578,1.653-35.369,3.1-53.637,3.207-5.143.03-14.036.606-23.2.83-.36,3.756-1.147,8.888-1.793,14.129,16.707-1.49,33.472-2.874,50.348-4.37,24.782-2.2,48.545-4.761,72.3,1.189,33.926,8.5,70.843,10.346,107.152,11.9,31.367,1.341,61.047,1.3,90.839-5.645,9.3-2.167,21.881-7.967,31.959-7.845,18.508.222,33.378,12.322,53.184,13.11,30.844,1.226,59.039-10.659,72.947-25.738,15.09-16.362,35.734-24.487,66.839-28.482,14.8-1.9,30.237-.94,45.1-2.107,9.018-.708,18.151-.669,27.326-.644C1980.374,910.4,1980.469,906.216,1980.52,902.06Z" transform="translate(-1353.488 -872.384)" fill="#8c582f" stroke="rgba(0,0,0,0)" stroke-width="1"/>
        <path id="Path_14423" data-name="Path 14423" d="M1974.391,1110.623c-20.047,1.154-40.27.574-60.281,2.2-41.753,3.4-85.387,7.14-127.55,2.353-29.3-3.328-58.624-6.513-88.649-5.079-22.05,1.054-40.535,5.293-62.079,8.228-18.013,2.454-38.955,1.175-57.564,1.175-38.71,0-73.95-4.379-112.14-7.314-29.86-2.293-59.462-4.6-89.543-2.726-4.884.306-10.085.995-15.325,1.49.685,3.364,1.331,6.575,1.9,9.562,13.643-.615,28.837-1.377,42.752-1.012,30.9.813,64.069,4.625,94.008,9.546,22.09,3.63,49.388,6.18,72.255,5.487,11.784-.357,23.469-.8,34.9-2.48,5.727-.841,15.975-3.831,21.658-1.723,20.975,7.778-20.978,13.934-27.26,15.146-21.653,4.174-42.718,9.878-64.838,13.317-13.965,2.171-28.12,1.775-42.32,2.51-19.411,1-39.044,2.487-58.529,3.005a349.592,349.592,0,0,1-70.7-5.408c.011,2.406.063,4.776.185,7.057,27.363.62,70.5,6.068,75.393,6.854,26.363,4.236,56.715,7.582,84.262,6.774,30.936-.907,56.649-6.855,82.729-16.295,15.718-5.688,29.388-13.131,46.117-17.843,17.4-4.9,36.387-7.506,55.277-9.633,37.571-4.23,78.688-3.143,116.64-1.569,37.557,1.556,74.374,5.877,111.82,7.716,15.6.766,29.4-1.969,44.274-3.143.311-7.365-.455-16.829.256-27.745.033-.508.075-1.012.115-1.518C1978.539,1110.164,1975.52,1110.557,1974.391,1110.623Z" transform="translate(-1353.488 -850.208)" fill="#774821" stroke="rgba(0,0,0,0)" stroke-width="1"/>
        <path id="Path_14424" data-name="Path 14424" d="M1979.816,1172.334c-26.425-3.983-52.062-8.979-79.135-10.6-50.884-3.039-102.941,2.244-153.622,3.642a332.657,332.657,0,0,0-66.614,8.883c-13.407,3.23-27.095,5.349-40.908,8.328-10.814,2.333-27.93,6.285-37.171,10.33a51.376,51.376,0,0,0-4.924,2.491c16.582,1.025,33.048,4.069,49.59,5.768,20.614,2.117,41.809-4.05,62.6-3.969,53.748.211,109.155,1.391,162.168-10.827,19.917-4.59,40.949-6.16,60.938-7.814,12.309-1.018,29.482,7.946,41.056.237C1977.275,1176.488,1979.117,1174.334,1979.816,1172.334Z" transform="translate(-1353.488 -845.417)" fill="#8c582f" stroke="rgba(0,0,0,0)" stroke-width="1"/>
        <path id="Path_14425" data-name="Path 14425" d="M1358.051,1051.047c13.362,1.451,26.714,2.578,40.046,3.964,14.44,1.5,28.283,4.5,43.031,4.716,16.448.24,33.379-1.161,49.81-1.594,17.976-.475,35.729.632,53.479-1.526,14.066-1.71,27.268-5.655,41.9-5.236,20.442.586,36,4.7,56.763,1.041,24.489-4.312,39.251-13.31,58.475-22.354,12.4-5.835,23.962-10.6,40.148-8.957,18.147,1.846,32.131,10.122,47.987,15.379,28.124,9.322,54.042,5.19,83.513-.274,14.735-2.731,29.875-5.631,44.878-7.83,11.119-1.629,22.524-.665,33.806-1.935a135.7,135.7,0,0,1,16.856-.645c-4.314-1.9-8.632-3.949-12.994-5.388-14.091-4.65-29.123-2.573-43.243-7.373a13.97,13.97,0,0,1-6.325-3.969c20.48-2.9,40.281-2.557,61.391-2.475,9.149.036,18.557,3.243,19.256-12.272-2.927-.374-5.719-.826-7.295-.93a350.637,350.637,0,0,0-39.321-.522c-12.062.607-23.854,3.475-35.727,4.583-12.448,1.162-24.982,1.676-37.54,2.7-42.559,3.473-80.381-.106-120.332-8.46-18.95-3.962-39.595-7.488-59.125-3.526-16.469,3.339-31.3,9.786-48.54,12.952-39.088,7.18-79.767,10.019-121.19,11.193-28.493.806-57.02-.639-85.769-.639-12.409,0-25.037.292-37.291-.408-2.95-.168-7.316-.292-12.125-.527a28.164,28.164,0,0,1-1.616,5.749c6.056,4.284,12.594,9.2,18.8,11.818-1.368,4.456-1.948,10.787-.112,15.2-5.79,3.349-14.587,3.442-20.8,5.08C1374.619,1049.688,1362.366,1047.308,1358.051,1051.047Z" transform="translate(-1353.488 -861.471)" fill="#774821" stroke="rgba(0,0,0,0)" stroke-width="1" opacity="0.67"/>
        <path id="Path_14426" data-name="Path 14426" d="M1355.4,1086.178c14.812-.357,29.786,0,44.609,0,51.533.005,102.543,3.568,153.85,1.046,18.508-.911,39.071-2.24,57.666-1.071,14.215.894,22.7,6.757,36.077,1.789,18.746-6.96,29.718-19.45,51.221-24.366,15.254-3.487,20.954,1.1,31.643,7.544,19.642,11.832,42.178,23.627,72.2,22.906,28.261-.678,56.552-.95,84.87-1.567,12.57-.273,24.369-2.077,36.554-3.668,12.26-1.6,23.566-1.345,36.06-1.568,8.921-.159,17.247-1.47,25.809-2.345.011-.232.027-.461.037-.693.5-11.7-.225-23.1-.434-34.848-.241-13.539.425-18.82-5.328-22.133-2.321-.025-4.235-.07-5.187-.05-33.45.655-65.518,6.3-97.556,12.144-31.8,5.8-56,7.862-87.312.276-14.145-3.428-27.034-8.791-40.213-13.582-15.039-5.467-24.732-4.224-39.35,1.8-23.265,9.587-37.785,25.269-68.725,27.043-17.966,1.031-34.58-1.235-51.8-2.724-15.905-1.375-30.806,3.716-46.445,4.828-41.462,2.945-81.719,3.666-123.458,2.587-22.583-.583-41.393-4.187-63.2-6.894-.421-.052-.97-.1-1.626-.158-2.785,7.856-2.116,20.316-.18,33.71C1355.252,1086.183,1355.328,1086.181,1355.4,1086.178Z" transform="translate(-1353.488 -858.15)" fill="#774821" stroke="rgba(0,0,0,0)" stroke-width="1"/>
        <path id="Path_14427" data-name="Path 14427" d="M1449.406,1198.4c22.955-1.03,45.659-2.609,68.582-2.519,18.849.075,37.839.125,56.793.723a59.869,59.869,0,0,1,6.437-4.449c22.873-13.839,66.156-19.494,97.037-23.535,23.5-3.076,47.551-5.568,71.458-7.3,41.431-2.993,83.524-4.454,125.094-1.569,26.214,1.819,52.32,3.332,78.557,4.574,4.225.2,13.609,1.3,23.428,2.159-5.03-4.718-13.817-8.17-12.758-10.673l2.532-2.778c7.787-.062,11.659-2.641,13.552-7.244-10.455,1.1-21.659,1.428-24.925,1.426-23.835-.016-46.857-2.321-70.362-3.658-25.668-1.462-51.977-.735-77.682-2.1-16.621-.882-34.838-.281-50.89-2.716a173.552,173.552,0,0,0-68.426,3.238c-49.757,12.912-91.179,40.085-147.547,41.279-33.711.714-66.79-1.792-100.387-4.281-21.321-1.58-41.861-5.548-63.066-7.617-3.391-.331-7.085-.476-10.843-.646,1.038,6.592,3.177,11.6,7.445,13.2,11.942,4.464,25.669-3.252,43.517,3.416a18.257,18.257,0,0,1-.924,6.517c-5.42.509-11.043-.152-16.459.488-2.175,1.073-1.423,7.375.58,8.348C1413.722,1209.266,1433.808,1199.105,1449.406,1198.4Z" transform="translate(-1353.488 -847.63)" fill="#8c582f" stroke="rgba(0,0,0,0)" stroke-width="1"/>
        <path id="Path_14428" data-name="Path 14428" d="M1398.966,1151.415c22.722-.037,45.32,1.128,68.077.534,21.142-.552,42.43-3.953,63.017-6.8,7.266-1.006,38.4-2.923,40.254-5.657-6.21-1.689-14.585-1.3-21.319-1.54-8.453-.3-15.939-1.247-24.141-2.091-18.011-1.854-35.337-3.939-53.343-5.975-24.7-2.792-51.073-3.883-76.366-4.589-3.637-.1-17.236.273-30.812.418a70.113,70.113,0,0,1,.882,7.909c.162,4.416.048,9.49-.047,14.7C1378.256,1149.279,1392.228,1151.425,1398.966,1151.415Z" transform="translate(-1353.488 -848.688)" fill="#aa7548" stroke="rgba(0,0,0,0)" stroke-width="1"/>
        <path id="Path_14429" data-name="Path 14429" d="M1423.057,943.924c13.07-.409,22.609-4.911,35.078-6.413a84.234,84.234,0,0,1,33.96,2.7c61.069,16.9,136.661,17.278,198.916,3.2,9.482-2.145,23.912-6.3,33.94-6.844,12.2-.662,17.446,8.2,25.707,11.757,10.37,4.468,25.617,4.157,34.178-2.137,10.6-7.8,6.5-19.407,11.573-28.464,7.464-13.311,28.444-12.95,48.474-13.34,20.506-.4,40.465-2.824,60.516-4.852,17.058-1.724,33.93.713,50.886,1.1,8.085.182,16.227.082,24.342.027.384-9.776,1.416-22.015-3.922-26.78-5.467-4.879-17.579,1.194-23.15,2.487-28.438,6.6-58.355-1.29-87.077.986-26.8,2.123-52.949,3.969-79.829,3.864a577.868,577.868,0,0,0-98.887,8.241c-191.624,32.15-288,7.295-305.777.739-7.819-2.884-6.763,16.388-12.358,27.021-4.5,8.554-4.867,17.261-5.209,27.469C1383.828,943.776,1403.265,944.544,1423.057,943.924ZM1744.821,928.3c-8.771-2.834-19.307-11.714-22.748-16.973-7.053-10.785,6.754-12.381,21.635-10.17,13.463,2,27.949,8.86,30.368,17.641l-1.786,3.207C1775.582,930.533,1753.154,930.994,1744.821,928.3Z" transform="translate(-1353.488 -871.005)" fill="#8c582f" stroke="rgba(0,0,0,0)" stroke-width="1"/>
        <path id="Path_14430" data-name="Path 14430" d="M1392.688,1010.43c43.284,2.987,88.559,2.292,132.15,1.032,30.467-.882,61.248-2.727,90.028-8.869,29.7-6.337,55.223-14.458,87.558-16.178,22.827-1.213,45.93-.4,67.212,4.818,12.3,3.015,23.122,6.961,36.595,8.224,16.068,1.507,32.97.272,49.1-.115,16.011-.383,32.966.552,48.949-.379,13.2-.769,26.161-3.975,39.278-5.134a250.983,250.983,0,0,1,27.76-.639,96.518,96.518,0,0,1,15.449,2.029c-.005-.1-.01-.193-.016-.293-.113-1.848-.219-3.714-.333-5.568-8.445,1.707-21.985.211-29.04-.19-14.993-.853-29.527-3.752-44.658-4.278-11.974-.415-24.115.241-35.923.56-6.91.187-20.1,1.327-25.9-1.484-15.718-7.614,23.135-15.11,30.387-17.24,20.9-6.141,33.62-17.914,56.244-22.852,14.424-3.147,28.765-5.714,42.687-6.379-.035-.921-.065-1.865-.085-2.843-.094-4.709-.063-9.453.01-14.2-13.582.68-31.371-.114-36.133.143-19.541,1.057-38.041,5.446-55.6,10.579-15.12,4.418-18.946,13.167-27.692,21.273-12.8,11.86-34.325,19.086-57.16,22.589-14.3,2.2-33.238,1.315-47.339-.621-16.063-2.206-33.642-10.55-49.148-5.9-16.314,4.889-30.918,6.273-49.773,6.921-21.838.752-43.131,4.315-65.2,4.7a473.093,473.093,0,0,1-79.935-4.831,146.351,146.351,0,0,1-27.2-6.377c-6.611-2.347-11.677-5.785-18.828-7.468-7.638-1.8-16.09-1.162-24.286-1.175-25.077-.038-53.972,6.209-80.149,6.532-.533,5.755-.642,11.093.469,14.238,2.37,6.708,13.855,5.3,19.072,8.025,8.624,4.508,17.946,7.619,26.445,13.3-5.45,9.129-14.458-5.679-19.93-1.882-1.976,1.372-3.026,5.063-3.851,9.184C1387.186,1009.964,1390.217,1010.26,1392.688,1010.43Z" transform="translate(-1353.488 -867.545)" fill="#774821" stroke="rgba(0,0,0,0)" stroke-width="1"/>
      </g>
      <g id="Group_969" data-name="Group 969" transform="translate(12.014 7.934)" opacity="0.5">
        <path id="Path_14431" data-name="Path 14431" d="M1973.035,1168.565c-1.006-.1-1.971-.241-2.652-.353A17.189,17.189,0,0,0,1973.035,1168.565Z" transform="translate(-1365.48 -852.67)" fill="#895b3d"/>
        <path id="Path_14432" data-name="Path 14432" d="M1973.979,966.058a17.585,17.585,0,0,1-.777-6.528c9.069-.56,7.027-8.632,6.781-21.083-.228-11.543.267-23.284.4-34.844.085-7.429,1.224-17.413-.545-24.331-7.5,15.312-7.168,43.986-8.208,56.431-2.141,25.61,2.887,43.487,6.917,68.592-17.834,1.215-69.678-7.627-76.356,14.627q2.973-.147,5.98-.275c19.724-2.587,38.881-2.273,59.255-2.192,10.1.039,20.514,3.946,19.181-17.735C1985.623,982.716,1985.283,965.356,1973.979,966.058Z" transform="translate(-1365.48 -879.271)" fill="#895b3d"/>
        <path id="Path_14433" data-name="Path 14433" d="M1871.652,1185.971c19.917-4.59,40.95-6.16,60.938-7.814,12.31-1.018,29.482,7.946,41.057.237,6.523-4.343,7.306-8.1,5.56-11.356a8.422,8.422,0,0,1-6.172,1.794,18.146,18.146,0,0,0,3.81.112c-23.183,8.792-31.723-2.993-75.285,1.674-31.574,3.384-73.245,9.38-104.414,11.67-58.745,4.317-123.742,9.361-182.79-1.223-28.518-5.111-50.287-4.3-79.911-3.833-29.731.468-62.339,7-91.351,7.6,8.716-23.319-27.909-14.018-41.662-14.213-12.2-.171-22.945,2.335-35.952-5.307.859,7.943,2.961,14.165,7.812,15.978,11.941,4.464,25.668-3.252,43.517,3.416a18.257,18.257,0,0,1-.925,6.517c-5.419.509-11.042-.153-16.458.488-2.175,1.073-1.424,7.375.58,8.348,13.572,6.581,33.658-3.58,49.257-4.281,22.955-1.03,45.658-2.609,68.581-2.519,26.19.1,52.652.152,78.911,1.7,16.766.99,33.411,4.086,50.133,5.8,20.615,2.117,41.809-4.05,62.6-3.969C1763.232,1197.008,1818.64,1198.189,1871.652,1185.971Z" transform="translate(-1365.48 -852.937)" fill="#895b3d"/>
        <path id="Path_14434" data-name="Path 14434" d="M1985.414,1049.033c-.269-15.147.594-19.956-7.664-23.241-2.517,5.382-3.482,55.983-4.328,65.68-1.951,22.348,1.852,45.356,1.51,66.55-4.843-.546-10.878,1.632-15.63.74.951,3.7,2.534,6.051,4.513,7.6a1.031,1.031,0,0,1,.076-.325l2.532-2.778c20.69-.164,13.745-18.1,15.468-44.543.747-11.481,3.428-22.525,3.957-34.832C1986.35,1072.181,1985.622,1060.78,1985.414,1049.033Z" transform="translate(-1365.48 -865.782)" fill="#895b3d"/>
      </g>
    </g>
    <g id="Group_1003" data-name="Group 1003" transform="translate(1446.64 820.435)">
      <g id="Group_986" data-name="Group 986">
        <path id="Path_14435" data-name="Path 14435" d="M1467.838,815.538c0,6.393-4.746,11.575-10.6,11.575s-10.6-5.182-10.6-11.575,4.745-11.575,10.6-11.575S1467.838,809.145,1467.838,815.538Z" transform="translate(-1446.64 -803.963)" fill="#7c5438"/>
        <path id="Path_14436" data-name="Path 14436" d="M1465.566,923.844c0,5.023-3.728,9.095-8.328,9.095s-8.327-4.071-8.327-9.095,3.728-9.095,8.327-9.095S1465.566,918.821,1465.566,923.844Z" transform="translate(-1446.64 -793.764)" fill="#7c5438"/>
        <g id="Group_985" data-name="Group 985" transform="translate(5.299 13.228)">
          <path id="Rectangle_64" data-name="Rectangle 64" d="M4.543,0H6.057A4.542,4.542,0,0,1,10.6,4.542V114.514a4.543,4.543,0,0,1-4.543,4.543H4.543A4.543,4.543,0,0,1,0,114.514V4.543A4.543,4.543,0,0,1,4.543,0Z" fill="#c6bc93"/>
          <g id="Group_971" data-name="Group 971" transform="translate(2.612 8.625)">
            <path id="Path_14437" data-name="Path 14437" d="M1455.95,831.674a18.29,18.29,0,0,0,6.144-6.158c.618-1.152-1.018-2.192-1.635-1.043a16.169,16.169,0,0,1-5.465,5.417c-1.029.709-.08,2.5.956,1.784Z" transform="translate(-1454.551 -823.974)" fill="#968f71"/>
          </g>
          <g id="Group_972" data-name="Group 972" transform="translate(2.638 17.467)">
            <path id="Path_14438" data-name="Path 14438" d="M1455.95,838.922c2.005-1.555,4.019-3.044,5.386-5.331a.969.969,0,1,0-1.634-1.043,17.391,17.391,0,0,1-4.708,4.589c-.986.766-.042,2.56.956,1.786Z" transform="translate(-1454.577 -832.07)" fill="#968f71"/>
          </g>
          <g id="Group_973" data-name="Group 973" transform="translate(2.85 26.867)">
            <path id="Path_14439" data-name="Path 14439" d="M1456.2,847.224a17.6,17.6,0,0,0,5.134-5.056.969.969,0,0,0-1.634-1.043,15.223,15.223,0,0,1-4.455,4.315c-1.053.673-.1,2.459.955,1.784Z" transform="translate(-1454.789 -840.678)" fill="#968f71"/>
          </g>
          <g id="Group_974" data-name="Group 974" transform="translate(2.61 34.805)">
            <path id="Path_14440" data-name="Path 14440" d="M1455.95,855.1a16.191,16.191,0,0,0,5.639-5.607c.615-1.154-1.021-2.194-1.634-1.044a14.106,14.106,0,0,1-4.961,4.866c-1.032.7-.082,2.494.956,1.784Z" transform="translate(-1454.549 -847.947)" fill="#968f71"/>
          </g>
          <g id="Group_975" data-name="Group 975" transform="translate(2.578 43.645)">
            <path id="Path_14441" data-name="Path 14441" d="M1455.95,862.9a14.428,14.428,0,0,0,5.386-5.331c.663-1.124-.976-2.16-1.634-1.043a12.438,12.438,0,0,1-4.708,4.59c-1.085.609-.128,2.394.956,1.784Z" transform="translate(-1454.517 -856.042)" fill="#968f71"/>
          </g>
          <g id="Group_976" data-name="Group 976" transform="translate(2.877 52.774)">
            <path id="Path_14442" data-name="Path 14442" d="M1456.2,870.671a19.545,19.545,0,0,0,4.882-4.781.969.969,0,0,0-1.634-1.043,16.814,16.814,0,0,1-4.2,4.038c-1.009.738-.062,2.529.955,1.786Z" transform="translate(-1454.816 -864.401)" fill="#968f71"/>
          </g>
          <g id="Group_977" data-name="Group 977" transform="translate(3.34 60.389)">
            <path id="Path_14443" data-name="Path 14443" d="M1456.9,878.409c1.606-1.739,3.308-3.369,4.8-5.235.8-1-.536-2.469-1.338-1.461-1.488,1.866-3.189,3.5-4.795,5.236-.868.939.471,2.4,1.338,1.46Z" transform="translate(-1455.279 -871.374)" fill="#968f71"/>
          </g>
          <g id="Group_978" data-name="Group 978" transform="translate(3.591 69.012)">
            <path id="Path_14444" data-name="Path 14444" d="M1456.959,885.561a13.625,13.625,0,0,0,4.377-4.781.969.969,0,1,0-1.634-1.043,11.514,11.514,0,0,1-3.7,4.038c-1.079.625-.123,2.409.955,1.786Z" transform="translate(-1455.53 -879.27)" fill="#968f71"/>
          </g>
          <g id="Group_979" data-name="Group 979" transform="translate(3.826 77.189)">
            <path id="Path_14445" data-name="Path 14445" d="M1457.211,893.14c1.913-.961,3.176-2.848,4.482-4.571.772-1.019-.559-2.49-1.338-1.461-1.2,1.586-2.338,3.364-4.1,4.247-1.108.557-.145,2.338.955,1.786Z" transform="translate(-1455.765 -886.758)" fill="#968f71"/>
          </g>
          <g id="Group_980" data-name="Group 980" transform="translate(3.305 84.739)">
            <path id="Path_14446" data-name="Path 14446" d="M1456.9,900.334a28.255,28.255,0,0,0,4.438-5.17.969.969,0,0,0-1.634-1.043,26.2,26.2,0,0,1-4.142,4.752.991.991,0,0,0,1.338,1.461Z" transform="translate(-1455.244 -893.672)" fill="#968f71"/>
          </g>
          <g id="Group_981" data-name="Group 981" transform="translate(3.617 92.431)">
            <path id="Path_14447" data-name="Path 14447" d="M1456.23,907.117c2.511.708,4.246-3.049,5.359-4.885a.969.969,0,1,0-1.634-1.043c-.518.853-1.01,1.73-1.59,2.535-.3.417-1.049,1.564-1.632,1.4-1.183-.333-1.684,1.661-.5,1.993Z" transform="translate(-1455.556 -900.716)" fill="#968f71"/>
          </g>
          <g id="Group_982" data-name="Group 982" transform="translate(4.098 102.306)">
            <path id="Path_14448" data-name="Path 14448" d="M1457.464,915.826c1.69-.986,2.673-2.837,3.977-4.3.853-.954-.485-2.417-1.338-1.462-1.176,1.316-2.076,3.086-3.594,3.973-1.077.628-.121,2.412.955,1.784Z" transform="translate(-1456.036 -909.758)" fill="#968f71"/>
          </g>
          <g id="Group_983" data-name="Group 983" transform="translate(4.36 111.132)">
            <path id="Path_14449" data-name="Path 14449" d="M1457.716,922.523a8.8,8.8,0,0,0,3.368-3.127,1.089,1.089,0,0,0-.339-1.414.923.923,0,0,0-1.3.371,6.857,6.857,0,0,1-2.689,2.385,1.088,1.088,0,0,0-.34,1.414.927.927,0,0,0,1.295.37Z" transform="translate(-1456.299 -917.84)" fill="#968f71"/>
          </g>
          <g id="Group_984" data-name="Group 984" transform="translate(2.334 2.059)">
            <path id="Path_14450" data-name="Path 14450" d="M1455.889,824.9a45.418,45.418,0,0,0,4.186-5.445.97.97,0,0,0-1.635-1.044,41.737,41.737,0,0,1-3.89,5.028c-.859.948.479,2.41,1.339,1.461Z" transform="translate(-1454.273 -817.961)" fill="#968f71"/>
          </g>
        </g>
      </g>
      <g id="Group_1002" data-name="Group 1002" transform="translate(439.512)">
        <path id="Path_14451" data-name="Path 14451" d="M1907.351,815.538c0,6.393-4.746,11.575-10.6,11.575s-10.6-5.182-10.6-11.575,4.746-11.575,10.6-11.575S1907.351,809.145,1907.351,815.538Z" transform="translate(-1886.152 -803.963)" fill="#7c5438"/>
        <path id="Path_14452" data-name="Path 14452" d="M1905.08,923.844c0,5.023-3.728,9.095-8.328,9.095s-8.328-4.071-8.328-9.095,3.728-9.095,8.328-9.095S1905.08,918.821,1905.08,923.844Z" transform="translate(-1886.152 -793.764)" fill="#7c5438"/>
        <g id="Group_1001" data-name="Group 1001" transform="translate(5.3 13.228)">
          <path id="Rectangle_65" data-name="Rectangle 65" d="M4.543,0H6.057A4.542,4.542,0,0,1,10.6,4.542V114.514a4.543,4.543,0,0,1-4.543,4.543H4.542A4.542,4.542,0,0,1,0,114.515V4.543A4.543,4.543,0,0,1,4.543,0Z" fill="#c6bc93"/>
          <g id="Group_987" data-name="Group 987" transform="translate(2.612 8.625)">
            <path id="Path_14453" data-name="Path 14453" d="M1895.463,831.674a18.287,18.287,0,0,0,6.143-6.158c.619-1.152-1.017-2.192-1.633-1.043a16.179,16.179,0,0,1-5.465,5.417c-1.03.709-.081,2.5.955,1.784Z" transform="translate(-1894.064 -823.974)" fill="#968f71"/>
          </g>
          <g id="Group_988" data-name="Group 988" transform="translate(2.639 17.467)">
            <path id="Path_14454" data-name="Path 14454" d="M1895.463,838.922c2.005-1.555,4.019-3.044,5.387-5.331a.97.97,0,1,0-1.635-1.043,17.4,17.4,0,0,1-4.707,4.589c-.986.766-.043,2.56.955,1.786Z" transform="translate(-1894.091 -832.07)" fill="#968f71"/>
          </g>
          <g id="Group_989" data-name="Group 989" transform="translate(2.85 26.867)">
            <path id="Path_14455" data-name="Path 14455" d="M1895.715,847.224a17.6,17.6,0,0,0,5.135-5.056.97.97,0,0,0-1.635-1.043,15.223,15.223,0,0,1-4.455,4.315c-1.053.673-.1,2.459.955,1.784Z" transform="translate(-1894.302 -840.678)" fill="#968f71"/>
          </g>
          <g id="Group_990" data-name="Group 990" transform="translate(2.611 34.805)">
            <path id="Path_14456" data-name="Path 14456" d="M1895.463,855.1a16.183,16.183,0,0,0,5.639-5.607c.615-1.154-1.021-2.194-1.634-1.044a14.1,14.1,0,0,1-4.96,4.866c-1.032.7-.083,2.494.955,1.784Z" transform="translate(-1894.063 -847.947)" fill="#968f71"/>
          </g>
          <g id="Group_991" data-name="Group 991" transform="translate(2.578 43.645)">
            <path id="Path_14457" data-name="Path 14457" d="M1895.463,862.9a14.436,14.436,0,0,0,5.387-5.331c.662-1.124-.977-2.16-1.635-1.043a12.449,12.449,0,0,1-4.707,4.59c-1.086.609-.128,2.394.955,1.784Z" transform="translate(-1894.03 -856.042)" fill="#968f71"/>
          </g>
          <g id="Group_992" data-name="Group 992" transform="translate(2.877 52.774)">
            <path id="Path_14458" data-name="Path 14458" d="M1895.715,870.671a19.564,19.564,0,0,0,4.883-4.781.97.97,0,0,0-1.635-1.043,16.816,16.816,0,0,1-4.2,4.038c-1.009.738-.063,2.529.955,1.786Z" transform="translate(-1894.329 -864.401)" fill="#968f71"/>
          </g>
          <g id="Group_993" data-name="Group 993" transform="translate(3.34 60.389)">
            <path id="Path_14459" data-name="Path 14459" d="M1896.411,878.409c1.607-1.739,3.308-3.369,4.8-5.235.8-1-.536-2.469-1.338-1.461-1.487,1.866-3.189,3.5-4.8,5.236-.868.939.471,2.4,1.338,1.46Z" transform="translate(-1894.792 -871.374)" fill="#968f71"/>
          </g>
          <g id="Group_994" data-name="Group 994" transform="translate(3.591 69.012)">
            <path id="Path_14460" data-name="Path 14460" d="M1896.473,885.561a13.633,13.633,0,0,0,4.377-4.781.97.97,0,1,0-1.635-1.043,11.522,11.522,0,0,1-3.7,4.038c-1.079.625-.122,2.409.956,1.786Z" transform="translate(-1895.043 -879.27)" fill="#968f71"/>
          </g>
          <g id="Group_995" data-name="Group 995" transform="translate(3.826 77.189)">
            <path id="Path_14461" data-name="Path 14461" d="M1896.725,893.14c1.912-.961,3.175-2.848,4.481-4.571.773-1.019-.559-2.49-1.338-1.461-1.2,1.586-2.339,3.364-4.1,4.247-1.109.557-.146,2.338.955,1.786Z" transform="translate(-1895.278 -886.758)" fill="#968f71"/>
          </g>
          <g id="Group_996" data-name="Group 996" transform="translate(3.304 84.739)">
            <path id="Path_14462" data-name="Path 14462" d="M1896.411,900.334a28.259,28.259,0,0,0,4.439-5.17.97.97,0,0,0-1.635-1.043,26.28,26.28,0,0,1-4.142,4.752.992.992,0,0,0,1.338,1.461Z" transform="translate(-1894.757 -893.672)" fill="#968f71"/>
          </g>
          <g id="Group_997" data-name="Group 997" transform="translate(3.618 92.431)">
            <path id="Path_14463" data-name="Path 14463" d="M1895.743,907.117c2.512.708,4.246-3.049,5.359-4.885a.969.969,0,1,0-1.634-1.043c-.518.853-1.01,1.73-1.59,2.535-.3.417-1.048,1.564-1.632,1.4-1.182-.333-1.683,1.661-.5,1.993Z" transform="translate(-1895.07 -900.716)" fill="#968f71"/>
          </g>
          <g id="Group_998" data-name="Group 998" transform="translate(4.097 102.306)">
            <path id="Path_14464" data-name="Path 14464" d="M1896.977,915.826c1.69-.986,2.673-2.837,3.977-4.3.853-.954-.484-2.417-1.339-1.462-1.175,1.316-2.075,3.086-3.593,3.973-1.078.628-.121,2.412.955,1.784Z" transform="translate(-1895.549 -909.758)" fill="#968f71"/>
          </g>
          <g id="Group_999" data-name="Group 999" transform="translate(4.36 111.132)">
            <path id="Path_14465" data-name="Path 14465" d="M1897.229,922.523a8.818,8.818,0,0,0,3.369-3.127,1.09,1.09,0,0,0-.34-1.414.923.923,0,0,0-1.3.371,6.858,6.858,0,0,1-2.689,2.385,1.088,1.088,0,0,0-.339,1.414.925.925,0,0,0,1.294.37Z" transform="translate(-1895.812 -917.84)" fill="#968f71"/>
          </g>
          <g id="Group_1000" data-name="Group 1000" transform="translate(2.335 2.059)">
            <path id="Path_14466" data-name="Path 14466" d="M1895.4,824.9a45.306,45.306,0,0,0,4.186-5.445.97.97,0,0,0-1.635-1.044,41.817,41.817,0,0,1-3.889,5.028c-.86.948.478,2.41,1.338,1.461Z" transform="translate(-1893.787 -817.961)" fill="#968f71"/>
          </g>
        </g>
      </g>
    </g>
    <g id="Group_1006" data-name="Group 1006" transform="translate(1369.274 1268.768)">
      <path id="Path_14469" data-name="Path 14469" d="M1955.273,1216.765c-34.026,2-68.426,8.192-102.945,7.544-38.129-.714-76.909,13.274-115.475,3.964-33.308-8.04-141.723,2.312-149.6.867-6.142-1.127-96.672-7.347-125.152-8.5-13.483-.544-26.713.747-40.009.113-9.755-.466-31.066-7.08-40.005.117-11.859,9.547-4.945,43.3-5.006,61.93-.03,9.371-2.541,31.62-.444,39.722,2.837,10.961,10.461,3.567,14.624,9.3-5.551,4.971-11.4,6.67-17.268,9.833-1.553,7.016-6.327,29.88-3.846,37.173,2.83,8.317,15.506,4.35,19.793,3.259,18.35-4.666,38.725,1.142,58.017,3.644,53.288,6.908,108.041,2.024,161.656,8.29,23.138,2.7,46.48-1.577,69.823-.635,29.156,1.177,57.41-10.03,86.444-11.662,31.053-1.746,61.657-4.035,92.9-3.538,19.89.316,40.362,3.614,60.831,2.448,16.079-.916,32.754-1.843,48.687,1.881,5.189,1.214,15.2,9.086,19.762,2.175,4.326-6.549,3.945-27.643,4.094-37.369.165-10.78.656-32.787-3.043-39.473-2-3.6-8.427,3.614-8.734-5.88s7.322-3.194,8.89-6.463c2.829-5.9.745-26.747-2.5-32.595-3.93-7.084-15.58-5.716-20.613-6.389-3.714-.5-7.129.682-10.274-2.581,6.943-16.755,33.723-2.165,34.937-22.409C1992.318,1206.527,1963.144,1216.3,1955.273,1216.765Z" transform="translate(-1369.274 -1214.501)" fill="#c18156"/>
      <g id="Group_1004" data-name="Group 1004" transform="translate(0.175)">
        <path id="Path_14470" data-name="Path 14470" d="M1979.712,1361.314c-19.927-1.946-38.205-10.27-58.146-12.127-27.514-2.563-54.712-4.991-82.377-4.895-29.319.1-58.909-1.517-88.04.686-26.285,1.989-51.329,8.333-77.571,11.177-26.9,2.914-56.446,2.842-83.4-1.507-32.35-5.22-64.294-26.771-97.3-16.833-13.456,4.051-25.344,10.889-39.241,13.945a286.7,286.7,0,0,1-39.023,5.582c-10.094.792-20.58-.26-30.634.329-4.267.251-9.574,1.2-14.447,1.246-.189,3.664-.054,6.812.622,8.8,2.829,8.317,15.505,4.35,19.792,3.259,18.35-4.666,38.725,1.142,58.017,3.644,53.288,6.908,108.04,2.024,161.656,8.29,23.138,2.7,46.48-1.577,69.823-.635,29.156,1.177,57.411-10.03,86.444-11.662,31.054-1.746,61.658-4.035,92.9-3.538,19.89.316,40.363,3.614,60.831,2.448,16.079-.916,32.754-1.842,48.688,1.881,5.189,1.214,15.2,9.086,19.761,2.175,1.479-2.239,2.407-6.177,2.995-10.777C1987.014,1362.852,1982.207,1361.559,1979.712,1361.314Z" transform="translate(-1369.449 -1203.386)" fill="#aa7548"/>
        <path id="Path_14471" data-name="Path 14471" d="M1967.346,1300.492c-10.118.548-22.245-1.366-31.929,1.156,12.6,3.162,26.062,4.965,38.8,7.271a145.579,145.579,0,0,1,17.558,4.039c-.377-4.793-1.02-9.026-2.091-11.759C1982.047,1300.928,1974.166,1300.121,1967.346,1300.492Z" transform="translate(-1369.449 -1206.601)" fill="#da9859"/>
        <path id="Path_14472" data-name="Path 14472" d="M1449.467,1263.617c26.282,6.034,56.122,13.655,83.336,14.754,14.774.6,26.641.271,39.989-2.461,7.594-1.555,31.143-4.6,33.974-11.53a88.646,88.646,0,0,0-12.936.17c-32.334,1.695-65.041,1.377-95.548-11.392-13.092-5.482-25.182-13.741-38.052-20.3-5.44-2.775-17.149-6.922-24.533-12.233-4.535.082-9.066.1-13.6-.12-9.756-.466-31.066-7.08-40.006.117-6.989,5.626-7.456,19.659-6.675,34.051C1394.977,1248.689,1437.194,1260.8,1449.467,1263.617Z" transform="translate(-1369.449 -1214.245)" fill="#aa7548"/>
        <path id="Path_14473" data-name="Path 14473" d="M1957.406,1257.941c-18.508-1.608-38.106-5.387-56.682-3.981-27.908,2.111-55.476,5.4-83.431,8.112-52.722,5.113-109.447,1.091-157.86,25.374-20.937,10.5-29.678,33.154-52.6,41.716-24.776,9.252-50.014-3.051-74.51-8.733-28.789-6.678-58.054-13.027-87.48-15.553-15.289-1.314-30.8-.412-46.187-1.031-5.979-.239-15.7-1.245-22.746-.548-.217,6.365-.148,12.233.73,15.623,2.837,10.961,10.461,3.567,14.625,9.3-5.552,4.971-11.4,6.67-17.269,9.833-.819,3.7-2.533,11.811-3.607,19.718,2.137.249,4.207.531,5.855.6,11.2.452,21.406-.454,32.189-1.143,29.53-1.884,56.356-7.465,83.7-19.225,29.161-12.544,59.206,14.062,88.546,15.576,31.82,1.642,64.419,5.328,95.688,2.412,17.085-1.593,34.048-4.863,51.152-7.244,22.072-3.071,44.651-2.249,66.573-5.916,22.653-3.791,46.538-.186,69.362-2.479,24.287-2.442,46.3,5.479,70.137,10.55,15.542,3.306,31.471,3.922,47.114,6.773,2.405.44,7.24.957,11.165,2.235.2-4.686.225-9.31.256-13.039-5.346-1.03-11.254-1.446-15.411-2.584-9.054-2.476-17.843-6.511-27.076-7.652-18.507-2.29-36.755-1.745-54.979-4.664-40.9-6.552-80.756,3.392-122.221.043-21.08-1.7-40.59-10.816-60.919-14.546-5.376-.987-15.119.07-18.869-4.411-5.342-6.384,1.762-11.774,7.777-13.971,7.165-2.617,16.728-2,24.581-2.628,13.222-1.059,26.5-2.917,39.83-4.125,35.091-3.176,69.533-11.333,104.74-13.545,27.3-1.714,53.494-.714,80.645.849,13.418.772,26.875-1.019,40.225-2.005-.455-7.322-1.887-15.1-3.675-18.324a8.86,8.86,0,0,0-.559-.868C1976.358,1259.822,1963.324,1258.454,1957.406,1257.941Z" transform="translate(-1369.449 -1210.897)" fill="#aa7548"/>
        <path id="Path_14474" data-name="Path 14474" d="M1943.218,1283.29c-23.252.993-46.375.809-69.477,4.33-18.124,2.761-36.152,1.824-54.135,3.7-29.206,3.051-58.416,5.474-87.072,9.728-8.19,1.215-17.392.158-25.134,2.182,2.667,8.548,28.34,11.536,36.277,13.528,14.391,3.613,28.231,8.536,43.386,9.133,30.871,1.215,59.763-6.555,91.377-5.279,25.764,1.04,51.508,3.1,76.5,7.935,12.19,2.361,23.834,6.021,36.4,7.852l.889.13c.05-3.821.08-8.3-.021-12.792-14.816-3.987-28.167-9.368-44.1-10.913-17.823-1.729-35.849-5.325-53.905-6.249-31.523-1.612-59.789,7.6-90.5,9.209-11.131.581-28.434,2.443-38.986-1.531.331-5.87,31.429-6.9,38.222-8.281,14.5-2.952,28.928-8.813,43.541-9.516,37.7-1.816,75.834,2.746,113.144-1.056,7.085-.722,13.832-1.2,20.805-1.321.645-6.994,7.385-1.719,8.848-4.769a20.725,20.725,0,0,0,1.284-7.366C1974.208,1281.385,1959.188,1282.609,1943.218,1283.29Z" transform="translate(-1369.449 -1208.305)" fill="#aa7548"/>
        <path id="Path_14475" data-name="Path 14475" d="M1955.272,1216.765c-34.026,2-68.426,8.192-102.945,7.544-38.128-.714-257.2,6.276-265.073,4.831-6.141-1.127-96.672-7.347-125.152-8.5-3.824-.155-7.625-.155-11.415-.1,6.138,3.512,12.046,7.526,17.582,10.642,13.459,7.579,25.215,11.677,39.859,16.466,36.562,11.957,75.12,6.305,112.727,10.869,5.3.643,17.955,2.225,12.109,8.681-2.216,2.446-16.93,3.829-20.944,4.637-19.726,3.973-37.228,13.219-58.377,14.2-34.458,1.588-65.717-6.264-99.079-13.192-18.309-3.8-36.852-8-55.615-7.769-7.571.093-15.111,1.668-22.68,2.137.436,5.708.828,11.092.814,15.593-.011,3.064-.286,7.51-.579,12.384,22.467-4.312,64.208.925,71.732,2.669,29.26,6.784,58.308,12.469,87.637,19.252,13.882,3.21,28.481,7.64,42.525,9,16.38,1.591,24.833-2.467,36.417-12.566,20.662-18.016,36.807-40.258,65.952-45.432,14.245-2.529,28.874-3.025,43.525-3.771,15.967-.812,31.246-4.67,47.032-6.292,29.842-3.071,60.5-.567,90.305-4.51,30.667-4.058,62.39,1.5,93.281-2.667,1.03-.139,2.034-.276,3.025-.411,9.057-11.138,31.769-.32,32.884-18.928C1992.317,1206.527,1963.143,1216.3,1955.272,1216.765Z" transform="translate(-1369.449 -1214.501)" fill="#aa7548"/>
      </g>
      <g id="Group_1005" data-name="Group 1005" transform="translate(0 1.849)" opacity="0.5">
        <path id="Path_14476" data-name="Path 14476" d="M1988.939,1303.995c-2-3.6-8.427,3.614-8.735-5.88s7.322-3.194,8.89-6.463c2.829-5.9.745-26.747-2.5-32.595a9,9,0,0,0-2.256-2.66l.01.034c1.653,5.882.3,18.909,1.559,25.27-13.749-9.347-13.114,32.829,0,29.333.367,12.553,1.47,24.536,1,37.047-.7,18.664-2.607,15.42-11.111,17.333-12.488,2.811-24.055,6.877-37.583,4.7-72.91-11.71-154.652-36.444-226.078,3.774-28.693,16.156-64.386,1.328-94.124,1.318-18.05,0-36.681-4.88-54.566,0-14.954,4.082-26.854-1.906-41.737-3.391-32.129-3.205-63.844-5.728-95.649-11.869-15.917-3.074-31.476,1.516-46.954-.039a18.324,18.324,0,0,0-9.415,1.908c-.561,5.472-.654,10.414.279,13.155,2.829,8.317,15.5,4.35,19.792,3.259,18.35-4.666,38.725,1.142,58.017,3.644,53.287,6.908,108.041,2.024,161.656,8.29,23.138,2.7,46.48-1.577,69.823-.635,29.156,1.177,57.41-10.03,86.444-11.662,31.054-1.746,61.657-4.035,92.9-3.538,19.89.316,40.362,3.614,60.831,2.448,16.08-.916,32.754-1.842,48.687,1.881,5.19,1.214,15.2,9.086,19.763,2.175,4.325-6.549,3.944-27.643,4.093-37.369C1992.147,1332.687,1992.638,1310.68,1988.939,1303.995Z" transform="translate(-1369.274 -1212.493)" fill="#7c5438"/>
        <path id="Path_14477" data-name="Path 14477" d="M1947.047,1253.181a67.782,67.782,0,0,0,8.893.091c7.282-15.926,33.506-1.863,34.706-21.893.51-8.514-2.537-12.995-7.086-15.185a59.016,59.016,0,0,1-1,8.423c-4.054,18-25.741,15.1-35.5,22.333C1946.959,1249.135,1946.963,1250.98,1947.047,1253.181Z" transform="translate(-1369.274 -1216.194)" fill="#7c5438"/>
      </g>
    </g>
    <g id="Group_1039" data-name="Group 1039" transform="translate(1454.472 1184.333)">
      <g id="Group_1022" data-name="Group 1022">
        <ellipse id="Ellipse_25" data-name="Ellipse 25" cx="10.599" cy="11.575" rx="10.599" ry="11.575" fill="#7c5438"/>
        <path id="Path_14479" data-name="Path 14479" d="M1473.4,1257.066c0,5.022-3.728,9.094-8.327,9.094s-8.328-4.071-8.328-9.094,3.729-9.095,8.328-9.095S1473.4,1252.042,1473.4,1257.066Z" transform="translate(-1454.472 -1126.984)" fill="#7c5438"/>
        <g id="Group_1021" data-name="Group 1021" transform="translate(5.3 13.228)">
          <path id="Rectangle_66" data-name="Rectangle 66" d="M4.542,0H6.057A4.542,4.542,0,0,1,10.6,4.542V114.514a4.543,4.543,0,0,1-4.543,4.543H4.542A4.542,4.542,0,0,1,0,114.515V4.542A4.542,4.542,0,0,1,4.542,0Z" fill="#c6bc93"/>
          <g id="Group_1007" data-name="Group 1007" transform="translate(2.612 8.626)">
            <path id="Path_14480" data-name="Path 14480" d="M1463.783,1164.9a18.291,18.291,0,0,0,6.144-6.159c.618-1.151-1.018-2.191-1.635-1.043a16.157,16.157,0,0,1-5.464,5.417c-1.03.709-.081,2.5.955,1.785Z" transform="translate(-1462.384 -1157.195)" fill="#968f71"/>
          </g>
          <g id="Group_1008" data-name="Group 1008" transform="translate(2.638 17.467)">
            <path id="Path_14481" data-name="Path 14481" d="M1463.783,1172.142c2.005-1.554,4.02-3.045,5.386-5.33a.969.969,0,1,0-1.634-1.044,17.421,17.421,0,0,1-4.707,4.59c-.987.764-.043,2.557.955,1.784Z" transform="translate(-1462.41 -1165.292)" fill="#968f71"/>
          </g>
          <g id="Group_1009" data-name="Group 1009" transform="translate(2.85 26.867)">
            <path id="Path_14482" data-name="Path 14482" d="M1464.035,1180.445a17.593,17.593,0,0,0,5.134-5.055.969.969,0,0,0-1.634-1.043,15.208,15.208,0,0,1-4.455,4.314c-1.052.673-.1,2.46.955,1.784Z" transform="translate(-1462.623 -1173.899)" fill="#968f71"/>
          </g>
          <g id="Group_1010" data-name="Group 1010" transform="translate(2.61 34.805)">
            <path id="Path_14483" data-name="Path 14483" d="M1463.783,1188.32a16.2,16.2,0,0,0,5.639-5.608c.615-1.154-1.021-2.2-1.634-1.043a14.1,14.1,0,0,1-4.96,4.865c-1.032.705-.083,2.493.955,1.786Z" transform="translate(-1462.383 -1181.168)" fill="#968f71"/>
          </g>
          <g id="Group_1011" data-name="Group 1011" transform="translate(2.578 43.646)">
            <path id="Path_14484" data-name="Path 14484" d="M1463.783,1196.117a14.419,14.419,0,0,0,5.386-5.331.969.969,0,1,0-1.634-1.043,12.444,12.444,0,0,1-4.707,4.59c-1.086.61-.128,2.394.955,1.784Z" transform="translate(-1462.35 -1189.263)" fill="#968f71"/>
          </g>
          <g id="Group_1012" data-name="Group 1012" transform="translate(2.877 52.775)">
            <path id="Path_14485" data-name="Path 14485" d="M1464.035,1203.891a19.522,19.522,0,0,0,4.882-4.78c.726-1.073-.918-2.1-1.634-1.043a16.814,16.814,0,0,1-4.2,4.038c-1.009.737-.062,2.529.955,1.784Z" transform="translate(-1462.649 -1197.623)" fill="#968f71"/>
          </g>
          <g id="Group_1013" data-name="Group 1013" transform="translate(3.34 60.389)">
            <path id="Path_14486" data-name="Path 14486" d="M1464.731,1211.631c1.606-1.741,3.308-3.37,4.8-5.236.8-1-.535-2.469-1.338-1.462-1.487,1.867-3.189,3.5-4.8,5.236-.867.94.471,2.4,1.338,1.462Z" transform="translate(-1463.112 -1204.595)" fill="#968f71"/>
          </g>
          <g id="Group_1014" data-name="Group 1014" transform="translate(3.591 69.012)">
            <path id="Path_14487" data-name="Path 14487" d="M1464.792,1218.782a13.628,13.628,0,0,0,4.377-4.78.969.969,0,1,0-1.634-1.043,11.5,11.5,0,0,1-3.7,4.037c-1.079.626-.122,2.409.955,1.786Z" transform="translate(-1463.363 -1212.492)" fill="#968f71"/>
          </g>
          <g id="Group_1015" data-name="Group 1015" transform="translate(3.826 77.189)">
            <path id="Path_14488" data-name="Path 14488" d="M1465.045,1226.36c1.912-.96,3.176-2.847,4.481-4.57.772-1.019-.559-2.49-1.338-1.461-1.2,1.586-2.338,3.364-4.1,4.248-1.108.556-.145,2.337.956,1.783Z" transform="translate(-1463.598 -1219.979)" fill="#968f71"/>
          </g>
          <g id="Group_1016" data-name="Group 1016" transform="translate(3.304 84.739)">
            <path id="Path_14489" data-name="Path 14489" d="M1464.731,1233.555a28.281,28.281,0,0,0,4.438-5.169.97.97,0,0,0-1.634-1.044,26.163,26.163,0,0,1-4.142,4.752.992.992,0,0,0,1.338,1.461Z" transform="translate(-1463.077 -1226.893)" fill="#968f71"/>
          </g>
          <g id="Group_1017" data-name="Group 1017" transform="translate(3.617 92.432)">
            <path id="Path_14490" data-name="Path 14490" d="M1464.063,1240.338c2.512.707,4.246-3.048,5.359-4.885a.969.969,0,1,0-1.634-1.043c-.517.853-1.01,1.73-1.59,2.535-.3.416-1.048,1.564-1.632,1.4-1.183-.333-1.684,1.66-.5,1.993Z" transform="translate(-1463.389 -1233.937)" fill="#968f71"/>
          </g>
          <g id="Group_1018" data-name="Group 1018" transform="translate(4.097 102.307)">
            <path id="Path_14491" data-name="Path 14491" d="M1465.3,1249.047c1.69-.986,2.673-2.836,3.977-4.3.853-.955-.484-2.417-1.339-1.461-1.175,1.315-2.074,3.086-3.593,3.972-1.077.629-.121,2.412.955,1.785Z" transform="translate(-1463.87 -1242.979)" fill="#968f71"/>
          </g>
          <g id="Group_1019" data-name="Group 1019" transform="translate(4.36 111.133)">
            <path id="Path_14492" data-name="Path 14492" d="M1465.549,1255.745a8.793,8.793,0,0,0,3.368-3.128,1.089,1.089,0,0,0-.339-1.414.924.924,0,0,0-1.3.37,6.837,6.837,0,0,1-2.689,2.386,1.091,1.091,0,0,0-.34,1.414.927.927,0,0,0,1.295.371Z" transform="translate(-1464.132 -1251.061)" fill="#968f71"/>
          </g>
          <g id="Group_1020" data-name="Group 1020" transform="translate(2.334 2.059)">
            <path id="Path_14493" data-name="Path 14493" d="M1463.722,1158.122a45.139,45.139,0,0,0,4.186-5.445.97.97,0,0,0-1.635-1.043,41.716,41.716,0,0,1-3.889,5.027c-.86.948.478,2.409,1.338,1.461Z" transform="translate(-1462.107 -1151.183)" fill="#968f71"/>
          </g>
        </g>
      </g>
      <g id="Group_1038" data-name="Group 1038" transform="translate(439.513 0)">
        <path id="Path_14494" data-name="Path 14494" d="M1915.184,1148.759c0,6.393-4.745,11.576-10.6,11.576s-10.6-5.183-10.6-11.576,4.746-11.575,10.6-11.575S1915.184,1142.367,1915.184,1148.759Z" transform="translate(-1893.985 -1137.184)" fill="#7c5438"/>
        <path id="Path_14495" data-name="Path 14495" d="M1912.913,1257.066c0,5.022-3.728,9.094-8.328,9.094s-8.328-4.071-8.328-9.094,3.728-9.095,8.328-9.095S1912.913,1252.042,1912.913,1257.066Z" transform="translate(-1893.985 -1126.985)" fill="#7c5438"/>
        <g id="Group_1037" data-name="Group 1037" transform="translate(5.3 13.228)">
          <path id="Rectangle_67" data-name="Rectangle 67" d="M4.542,0H6.058A4.542,4.542,0,0,1,10.6,4.542V114.514a4.543,4.543,0,0,1-4.543,4.543H4.543A4.543,4.543,0,0,1,0,114.514V4.542A4.542,4.542,0,0,1,4.542,0Z" fill="#c6bc93"/>
          <g id="Group_1023" data-name="Group 1023" transform="translate(2.612 8.626)">
            <path id="Path_14496" data-name="Path 14496" d="M1903.3,1164.9a18.29,18.29,0,0,0,6.144-6.159c.619-1.151-1.018-2.191-1.634-1.043a16.178,16.178,0,0,1-5.465,5.417c-1.031.709-.081,2.5.955,1.785Z" transform="translate(-1901.897 -1157.195)" fill="#968f71"/>
          </g>
          <g id="Group_1024" data-name="Group 1024" transform="translate(2.638 17.467)">
            <path id="Path_14497" data-name="Path 14497" d="M1903.3,1172.142c2.005-1.554,4.019-3.045,5.387-5.33a.97.97,0,1,0-1.634-1.044,17.435,17.435,0,0,1-4.708,4.59c-.987.764-.042,2.557.955,1.784Z" transform="translate(-1901.924 -1165.292)" fill="#968f71"/>
          </g>
          <g id="Group_1025" data-name="Group 1025" transform="translate(2.851 26.867)">
            <path id="Path_14498" data-name="Path 14498" d="M1903.549,1180.445a17.618,17.618,0,0,0,5.134-5.055.969.969,0,0,0-1.634-1.043,15.235,15.235,0,0,1-4.456,4.314c-1.052.673-.1,2.46.956,1.784Z" transform="translate(-1902.136 -1173.899)" fill="#968f71"/>
          </g>
          <g id="Group_1026" data-name="Group 1026" transform="translate(2.611 34.805)">
            <path id="Path_14499" data-name="Path 14499" d="M1903.3,1188.32a16.187,16.187,0,0,0,5.639-5.608c.616-1.154-1.021-2.2-1.634-1.043a14.1,14.1,0,0,1-4.96,4.865c-1.032.705-.083,2.493.955,1.786Z" transform="translate(-1901.896 -1181.168)" fill="#968f71"/>
          </g>
          <g id="Group_1027" data-name="Group 1027" transform="translate(2.578 43.646)">
            <path id="Path_14500" data-name="Path 14500" d="M1903.3,1196.117a14.428,14.428,0,0,0,5.387-5.331c.663-1.124-.977-2.159-1.634-1.043a12.452,12.452,0,0,1-4.708,4.59c-1.086.61-.128,2.394.955,1.784Z" transform="translate(-1901.863 -1189.263)" fill="#968f71"/>
          </g>
          <g id="Group_1028" data-name="Group 1028" transform="translate(2.877 52.775)">
            <path id="Path_14501" data-name="Path 14501" d="M1903.549,1203.891a19.52,19.52,0,0,0,4.882-4.78c.725-1.073-.919-2.1-1.635-1.043a16.816,16.816,0,0,1-4.2,4.038c-1.008.737-.062,2.529.956,1.784Z" transform="translate(-1902.163 -1197.623)" fill="#968f71"/>
          </g>
          <g id="Group_1029" data-name="Group 1029" transform="translate(3.34 60.389)">
            <path id="Path_14502" data-name="Path 14502" d="M1904.244,1211.631c1.607-1.741,3.308-3.37,4.795-5.236.8-1-.535-2.469-1.338-1.462-1.487,1.867-3.189,3.5-4.8,5.236-.867.94.472,2.4,1.338,1.462Z" transform="translate(-1902.625 -1204.595)" fill="#968f71"/>
          </g>
          <g id="Group_1030" data-name="Group 1030" transform="translate(3.592 69.012)">
            <path id="Path_14503" data-name="Path 14503" d="M1904.306,1218.782a13.637,13.637,0,0,0,4.377-4.78.969.969,0,1,0-1.634-1.043,11.511,11.511,0,0,1-3.7,4.037c-1.078.626-.122,2.409.956,1.786Z" transform="translate(-1902.877 -1212.492)" fill="#968f71"/>
          </g>
          <g id="Group_1031" data-name="Group 1031" transform="translate(3.827 77.189)">
            <path id="Path_14504" data-name="Path 14504" d="M1904.558,1226.36c1.912-.96,3.175-2.847,4.481-4.57.772-1.019-.559-2.49-1.338-1.461-1.2,1.586-2.338,3.364-4.1,4.248-1.108.556-.146,2.337.955,1.783Z" transform="translate(-1903.112 -1219.979)" fill="#968f71"/>
          </g>
          <g id="Group_1032" data-name="Group 1032" transform="translate(3.304 84.739)">
            <path id="Path_14505" data-name="Path 14505" d="M1904.244,1233.555a28.291,28.291,0,0,0,4.439-5.169.97.97,0,0,0-1.634-1.044,26.21,26.21,0,0,1-4.143,4.752.992.992,0,0,0,1.338,1.461Z" transform="translate(-1902.59 -1226.893)" fill="#968f71"/>
          </g>
          <g id="Group_1033" data-name="Group 1033" transform="translate(3.618 92.432)">
            <path id="Path_14506" data-name="Path 14506" d="M1903.576,1240.338c2.512.707,4.246-3.048,5.359-4.885a.969.969,0,1,0-1.634-1.043c-.518.853-1.01,1.73-1.59,2.535-.3.416-1.048,1.564-1.632,1.4-1.182-.333-1.683,1.66-.5,1.993Z" transform="translate(-1902.903 -1233.937)" fill="#968f71"/>
          </g>
          <g id="Group_1034" data-name="Group 1034" transform="translate(4.097 102.307)">
            <path id="Path_14507" data-name="Path 14507" d="M1904.81,1249.047c1.69-.986,2.673-2.836,3.977-4.3.853-.955-.484-2.417-1.338-1.461-1.176,1.315-2.076,3.086-3.595,3.972-1.076.629-.12,2.412.956,1.785Z" transform="translate(-1903.382 -1242.979)" fill="#968f71"/>
          </g>
          <g id="Group_1035" data-name="Group 1035" transform="translate(4.36 111.133)">
            <path id="Path_14508" data-name="Path 14508" d="M1905.063,1255.745a8.808,8.808,0,0,0,3.368-3.128,1.089,1.089,0,0,0-.34-1.414.923.923,0,0,0-1.295.37,6.831,6.831,0,0,1-2.689,2.386,1.088,1.088,0,0,0-.339,1.414.927.927,0,0,0,1.3.371Z" transform="translate(-1903.645 -1251.061)" fill="#968f71"/>
          </g>
          <g id="Group_1036" data-name="Group 1036" transform="translate(2.335 2.059)">
            <path id="Path_14509" data-name="Path 14509" d="M1903.235,1158.122a45.228,45.228,0,0,0,4.186-5.445.97.97,0,0,0-1.635-1.043,41.606,41.606,0,0,1-3.889,5.027c-.86.948.479,2.409,1.338,1.461Z" transform="translate(-1901.62 -1151.183)" fill="#968f71"/>
          </g>
        </g>
      </g>
    </g>
    <path id="Path_14510" data-name="Path 14510" d="M1462.645,722.172c0,6.393-4.746,11.575-10.6,11.575s-10.6-5.182-10.6-11.575,4.745-11.575,10.6-11.575S1462.645,715.779,1462.645,722.172Z" transform="translate(0 7.876)" fill="#7c5438"/>
    <path id="Path_14511" data-name="Path 14511" d="M1892.029,719.39c0,6.393-4.746,11.575-10.6,11.575s-10.6-5.182-10.6-11.575,4.745-11.575,10.6-11.575S1892.029,713,1892.029,719.39Z" transform="translate(0 7.62)" fill="#7c5438"/>
    <g id="Group_1066" data-name="Group 1066" transform="translate(1426.769 629.485)">
      <g id="Group_1040" data-name="Group 1040" transform="translate(28.468 38.256)">
        <path id="Path_14512" data-name="Path 14512" d="M1459.307,682.761c-.009.022-.021.044-.03.065C1459.3,682.884,1459.3,682.837,1459.307,682.761Z" transform="translate(-1455.237 -662.428)" fill="#c6bc93"/>
        <path id="Path_14513" data-name="Path 14513" d="M1473.447,664.15c-2.024.154-11.033,5.78-16.5,12.339-1.517,1.819-.047,5.758-1.708,7.317l4.092.405a1.971,1.971,0,0,0-.022.264c1.275-3.121,5.432-5.8,7.673-8.007,2.324-2.291,5.719-2.484,9.685-6.018C1478.83,666.716,1475.735,663.978,1473.447,664.15Z" transform="translate(-1455.237 -664.142)" fill="#c6bc93"/>
      </g>
      <g id="Group_1041" data-name="Group 1041" transform="translate(0 51.055)">
        <path id="Path_14514" data-name="Path 14514" d="M1449.407,688.027c.016.018.034.033.05.049C1449.459,688.137,1449.437,688.1,1449.407,688.027Z" transform="translate(-1426.769 -674.742)" fill="#c6bc93"/>
        <path id="Path_14515" data-name="Path 14515" d="M1429.363,676.016c1.932-.68,12.21.889,19.52,4.758,2.027,1.074,2,5.327,4.075,6.1l-3.662,2.036a1.8,1.8,0,0,1,.111.237c-2.245-2.38-7.014-3.176-9.848-4.319-2.937-1.185-6.155.013-11.039-1.658A4.1,4.1,0,0,1,1429.363,676.016Z" transform="translate(-1426.769 -675.862)" fill="#c6bc93"/>
      </g>
      <g id="Group_1056" data-name="Group 1056" transform="translate(20.826)">
        <path id="Path_14516" data-name="Path 14516" d="M1456.77,727.935a4.118,4.118,0,0,1-3.974,4.249l-1.31-.015a4.134,4.134,0,0,1-3.891-4.339l.9-94.47a4.115,4.115,0,0,1,3.972-4.249l1.311.014a4.136,4.136,0,0,1,3.892,4.34Z" transform="translate(-1447.595 -629.111)" fill="#c6bc93"/>
        <g id="Group_1042" data-name="Group 1042" transform="translate(3.072 7.513)">
          <path id="Path_14517" data-name="Path 14517" d="M1451.87,642.6a15.8,15.8,0,0,0,5.369-5.27c.545-.992-.863-1.908-1.406-.919a13.956,13.956,0,0,1-4.775,4.635c-.9.6-.091,2.161.812,1.555Z" transform="translate(-1450.667 -635.99)" fill="#968f71"/>
        </g>
        <g id="Group_1043" data-name="Group 1043" transform="translate(3.029 15.159)">
          <path id="Path_14518" data-name="Path 14518" d="M1451.8,648.878a17.219,17.219,0,0,0,4.707-4.563.84.84,0,1,0-1.406-.918,15,15,0,0,1-4.113,3.926c-.86.653-.057,2.215.812,1.555Z" transform="translate(-1450.624 -642.992)" fill="#968f71"/>
        </g>
        <g id="Group_1044" data-name="Group 1044" transform="translate(3.138 23.296)">
          <path id="Path_14519" data-name="Path 14519" d="M1451.948,656.067a15.2,15.2,0,0,0,4.486-4.327.84.84,0,0,0-1.406-.918,13.116,13.116,0,0,1-3.892,3.69c-.917.573-.107,2.13.812,1.555Z" transform="translate(-1450.733 -650.443)" fill="#968f71"/>
        </g>
        <g id="Group_1045" data-name="Group 1045" transform="translate(2.86 30.169)">
          <path id="Path_14520" data-name="Path 14520" d="M1451.659,662.881a13.98,13.98,0,0,0,4.928-4.8c.542-.994-.866-1.91-1.406-.919a12.182,12.182,0,0,1-4.334,4.164c-.9.6-.092,2.157.812,1.554Z" transform="translate(-1450.455 -656.737)" fill="#968f71"/>
        </g>
        <g id="Group_1046" data-name="Group 1046" transform="translate(2.762 37.819)">
          <path id="Path_14521" data-name="Path 14521" d="M1451.589,669.63a12.461,12.461,0,0,0,4.707-4.562c.582-.968-.828-1.879-1.406-.919a10.736,10.736,0,0,1-4.113,3.927c-.945.518-.131,2.071.812,1.554Z" transform="translate(-1450.357 -663.742)" fill="#968f71"/>
        </g>
        <g id="Group_1047" data-name="Group 1047" transform="translate(2.95 45.719)">
          <path id="Path_14522" data-name="Path 14522" d="M1451.737,676.363a16.894,16.894,0,0,0,4.265-4.09.84.84,0,0,0-1.406-.919,14.507,14.507,0,0,1-3.671,3.454c-.879.629-.074,2.189.812,1.555Z" transform="translate(-1450.545 -670.976)" fill="#968f71"/>
        </g>
        <g id="Group_1048" data-name="Group 1048" transform="translate(3.281 52.318)">
          <path id="Path_14523" data-name="Path 14523" d="M1452.271,683.069c1.4-1.491,2.891-2.885,4.194-4.486.7-.857-.444-2.142-1.147-1.278-1.3,1.6-2.789,2.994-4.193,4.485-.759.806.388,2.083,1.146,1.279Z" transform="translate(-1450.876 -677.019)" fill="#968f71"/>
        </g>
        <g id="Group_1049" data-name="Group 1049" transform="translate(3.436 59.778)">
          <path id="Path_14524" data-name="Path 14524" d="M1452.259,689.26a11.768,11.768,0,0,0,3.828-4.1.84.84,0,1,0-1.406-.918,9.953,9.953,0,0,1-3.234,3.46c-.939.53-.126,2.084.812,1.554Z" transform="translate(-1451.03 -683.849)" fill="#968f71"/>
        </g>
        <g id="Group_1050" data-name="Group 1050" transform="translate(3.571 66.861)">
          <path id="Path_14525" data-name="Path 14525" d="M1452.409,695.823c1.663-.812,2.773-2.435,3.917-3.913.677-.874-.463-2.16-1.146-1.279-1.053,1.362-2.052,2.89-3.583,3.637-.963.472-.145,2.023.812,1.555Z" transform="translate(-1451.166 -690.335)" fill="#968f71"/>
        </g>
        <g id="Group_1051" data-name="Group 1051" transform="translate(3.053 73.391)">
          <path id="Path_14526" data-name="Path 14526" d="M1452.074,702.047a24.424,24.424,0,0,0,3.884-4.432.84.84,0,0,0-1.406-.919,22.651,22.651,0,0,1-3.624,4.073.859.859,0,0,0,1.146,1.278Z" transform="translate(-1450.648 -696.315)" fill="#968f71"/>
        </g>
        <g id="Group_1052" data-name="Group 1052" transform="translate(3.264 80.053)">
          <path id="Path_14527" data-name="Path 14527" d="M1451.434,707.911c2.169.637,3.7-2.6,4.679-4.176a.84.84,0,1,0-1.406-.918c-.455.734-.888,1.488-1.4,2.179-.263.357-.92,1.343-1.424,1.2-1.021-.3-1.471,1.421-.452,1.72Z" transform="translate(-1450.859 -702.415)" fill="#968f71"/>
        </g>
        <g id="Group_1053" data-name="Group 1053" transform="translate(3.602 88.6)">
          <path id="Path_14528" data-name="Path 14528" d="M1452.424,715.463c1.472-.839,2.337-2.431,3.478-3.68.746-.817-.4-2.1-1.147-1.278-1.028,1.127-1.821,2.65-3.143,3.4-.937.534-.125,2.088.812,1.555Z" transform="translate(-1451.196 -710.242)" fill="#968f71"/>
        </g>
        <g id="Group_1054" data-name="Group 1054" transform="translate(3.767 96.237)">
          <path id="Path_14529" data-name="Path 14529" d="M1452.581,721.263a7.61,7.61,0,0,0,2.942-2.673.945.945,0,0,0-.283-1.227.8.8,0,0,0-1.124.308,5.9,5.9,0,0,1-2.347,2.038.942.942,0,0,0-.306,1.221.8.8,0,0,0,1.118.334Z" transform="translate(-1451.362 -717.234)" fill="#968f71"/>
        </g>
        <g id="Group_1055" data-name="Group 1055" transform="translate(2.891 1.809)">
          <path id="Path_14530" data-name="Path 14530" d="M1451.877,636.742a38.833,38.833,0,0,0,3.668-4.673.839.839,0,0,0-1.405-.918,36.147,36.147,0,0,1-3.409,4.314c-.751.811.4,2.09,1.146,1.278Z" transform="translate(-1450.486 -630.767)" fill="#968f71"/>
        </g>
      </g>
      <path id="Path_14531" data-name="Path 14531" d="M1459.839,680.74a9.135,9.135,0,0,0-6.235.964,10.168,10.168,0,0,0-2.47,1.665,11.427,11.427,0,0,0-1.493,1.548l-.985.168c-2.13-.162-5.776,1.946-6.266,4.224a6.553,6.553,0,0,0,3.532,7.241c2.5,1.043,5.867-.2,8.367-.705a9.608,9.608,0,0,0,6.965-4.891C1463.08,687.808,1464.181,681.937,1459.839,680.74Z" transform="translate(-1426.769 -624.378)" fill="#c6bc93"/>
      <path id="Path_14532" data-name="Path 14532" d="M1462.279,682.286c-1.685.761-3.309,3.122-4.453,4.13a29.389,29.389,0,0,1-10.094,5.656,18.625,18.625,0,0,1-4.865,1.009,6.006,6.006,0,0,0,3.057,3.13c2.5,1.043,5.866-.2,8.367-.7a9.609,9.609,0,0,0,6.964-4.893C1462.581,688.33,1463.523,684.612,1462.279,682.286Z" transform="translate(-1426.769 -624.215)" fill="#968f71" opacity="0.5"/>
      <g id="Group_1057" data-name="Group 1057" transform="translate(30.908 48.706)">
        <path id="Path_14533" data-name="Path 14533" d="M1459.239,681.1a21.276,21.276,0,0,0,2.6-6.268.826.826,0,1,0-1.576-.494,19.652,19.652,0,0,1-2.43,5.843.84.84,0,0,0,1.406.919Z" transform="translate(-1457.677 -673.711)" fill="#968f71"/>
      </g>
      <g id="Group_1058" data-name="Group 1058" transform="translate(36.052 45.846)">
        <path id="Path_14534" data-name="Path 14534" d="M1464.354,677.638a46.142,46.142,0,0,0,2.179-5.165c.428-1.042-.975-1.969-1.406-.918a45.864,45.864,0,0,1-2.18,5.164c-.554.985.854,1.9,1.407.919Z" transform="translate(-1462.82 -671.092)" fill="#968f71"/>
      </g>
      <g id="Group_1059" data-name="Group 1059" transform="translate(41.679 41.65)">
        <path id="Path_14535" data-name="Path 14535" d="M1469.965,673.76a21.208,21.208,0,0,0,1.935-5.381c.231-1.123-1.343-1.619-1.575-.494a19.423,19.423,0,0,1-1.766,4.956c-.515,1.008.891,1.926,1.406.918Z" transform="translate(-1468.447 -667.25)" fill="#968f71"/>
      </g>
      <g id="Group_1060" data-name="Group 1060" transform="translate(45.993 40.759)">
        <path id="Path_14536" data-name="Path 14536" d="M1474.245,671.737c.52-1.3.992-2.621,1.512-3.92.418-1.044-.984-1.972-1.406-.918-.52,1.3-.993,2.62-1.512,3.919-.418,1.044.984,1.973,1.406.919Z" transform="translate(-1472.762 -666.434)" fill="#968f71"/>
      </g>
      <g id="Group_1061" data-name="Group 1061" transform="translate(0.669 52.972)">
        <path id="Path_14537" data-name="Path 14537" d="M1430.385,682.37a12.621,12.621,0,0,1-1.353-4.1c-.143-1.14-1.726-.672-1.585.458a14.14,14.14,0,0,0,1.514,4.525c.508,1.012,1.932.127,1.424-.887Z" transform="translate(-1427.438 -677.617)" fill="#968f71"/>
      </g>
      <g id="Group_1062" data-name="Group 1062" transform="translate(4.266 53.55)">
        <path id="Path_14538" data-name="Path 14538" d="M1433.991,682.183a9.285,9.285,0,0,1-1.36-3.381c-.165-1.138-1.748-.673-1.585.458a10.606,10.606,0,0,0,1.521,3.81.839.839,0,1,0,1.424-.887Z" transform="translate(-1431.034 -678.146)" fill="#968f71"/>
      </g>
      <g id="Group_1063" data-name="Group 1063" transform="translate(8.017 53.265)">
        <path id="Path_14539" data-name="Path 14539" d="M1439.1,682.8c-1.142-1.109-2.5-2.268-2.671-4.049-.109-1.134-1.749-1.165-1.639-.019.227,2.357,1.592,3.818,3.139,5.321.786.762,1.962-.484,1.171-1.253Z" transform="translate(-1434.786 -677.885)" fill="#968f71"/>
      </g>
      <g id="Group_1064" data-name="Group 1064" transform="translate(14.87 55.838)">
        <path id="Path_14540" data-name="Path 14540" d="M1444.232,685.062a17.234,17.234,0,0,0-.972-4.185.825.825,0,1,0-1.584.458,15.67,15.67,0,0,1,.918,3.709.82.82,0,1,0,1.638.019Z" transform="translate(-1441.639 -680.241)" fill="#968f71"/>
      </g>
      <g id="Group_1065" data-name="Group 1065" transform="translate(18.464 56.422)">
        <path id="Path_14541" data-name="Path 14541" d="M1447.81,684.817c-.33-1.132-.62-2.278-.951-3.411a.825.825,0,1,0-1.584.456c.33,1.134.621,2.278.951,3.412a.825.825,0,1,0,1.584-.458Z" transform="translate(-1445.232 -680.777)" fill="#968f71"/>
      </g>
    </g>
    <g id="Group_1087" data-name="Group 1087" transform="translate(1869.694 625.045)">
      <g id="Group_1067" data-name="Group 1067" transform="translate(12.73 37.51)">
        <path id="Path_14542" data-name="Path 14542" d="M1886.513,678.473c-.009.022-.02.044-.029.066C1886.506,678.6,1886.511,678.548,1886.513,678.473Z" transform="translate(-1882.424 -657.636)" fill="#c6bc93"/>
        <path id="Path_14543" data-name="Path 14543" d="M1900.035,659.409c-2.019.225-10.853,6.172-16.124,12.922-1.461,1.873.126,5.757-1.487,7.375l4.1.258a2.023,2.023,0,0,0-.013.265c1.179-3.165,5.255-5.988,7.428-8.278,2.253-2.373,5.641-2.687,9.5-6.362C1905.492,661.781,1902.316,659.155,1900.035,659.409Z" transform="translate(-1882.424 -659.392)" fill="#c6bc93"/>
      </g>
      <g id="Group_1082" data-name="Group 1082" transform="translate(4.376)">
        <path id="Path_14544" data-name="Path 14544" d="M1885.184,723.694a4.145,4.145,0,0,1-3.843,4.39l-1.311.033a4.107,4.107,0,0,1-4.019-4.2l-1.94-94.451a4.144,4.144,0,0,1,3.843-4.389l1.311-.033a4.106,4.106,0,0,1,4.019,4.2Z" transform="translate(-1874.07 -625.045)" fill="#c6bc93"/>
        <g id="Group_1068" data-name="Group 1068" transform="translate(2.447 7.397)">
          <path id="Path_14545" data-name="Path 14545" d="M1877.744,638.6a15.913,15.913,0,0,0,5.208-5.46c.515-1.01-.92-1.875-1.432-.867a14.1,14.1,0,0,1-4.634,4.8c-.879.634-.026,2.163.858,1.524Z" transform="translate(-1876.517 -631.819)" fill="#968f71"/>
        </g>
        <g id="Group_1069" data-name="Group 1069" transform="translate(2.613 15.065)">
          <path id="Path_14546" data-name="Path 14546" d="M1877.887,644.866a17.355,17.355,0,0,0,4.566-4.729.837.837,0,1,0-1.432-.868,15.171,15.171,0,0,1-3.993,4.072c-.839.682.009,2.215.859,1.524Z" transform="translate(-1876.683 -638.84)" fill="#968f71"/>
        </g>
        <g id="Group_1070" data-name="Group 1070" transform="translate(2.957 23.2)">
          <path id="Path_14547" data-name="Path 14547" d="M1878.267,652.045a15.318,15.318,0,0,0,4.353-4.484.837.837,0,1,0-1.432-.868,13.272,13.272,0,0,1-3.78,3.829c-.9.605-.043,2.131.859,1.523Z" transform="translate(-1877.027 -646.289)" fill="#968f71"/>
        </g>
        <g id="Group_1071" data-name="Group 1071" transform="translate(2.901 30.066)">
          <path id="Path_14548" data-name="Path 14548" d="M1878.2,658.866a14.079,14.079,0,0,0,4.781-4.972c.512-1.012-.922-1.877-1.432-.868a12.288,12.288,0,0,1-4.206,4.316c-.881.632-.027,2.16.857,1.524Z" transform="translate(-1876.972 -652.576)" fill="#968f71"/>
        </g>
        <g id="Group_1072" data-name="Group 1072" transform="translate(3.024 37.721)">
          <path id="Path_14549" data-name="Path 14549" d="M1878.352,665.614a12.567,12.567,0,0,0,4.567-4.728.838.838,0,1,0-1.433-.868,10.837,10.837,0,0,1-3.993,4.072c-.928.55-.068,2.074.859,1.523Z" transform="translate(-1877.094 -659.586)" fill="#968f71"/>
        </g>
        <g id="Group_1073" data-name="Group 1073" transform="translate(3.436 45.627)">
          <path id="Path_14550" data-name="Path 14550" d="M1878.722,672.337a17.019,17.019,0,0,0,4.14-4.24.837.837,0,1,0-1.432-.868,14.685,14.685,0,0,1-3.567,3.585c-.859.66-.009,2.189.859,1.523Z" transform="translate(-1877.506 -666.825)" fill="#968f71"/>
        </g>
        <g id="Group_1074" data-name="Group 1074" transform="translate(3.988 52.202)">
          <path id="Path_14551" data-name="Path 14551" d="M1879.474,679.023c1.358-1.541,2.8-2.987,4.056-4.635.672-.882-.508-2.124-1.184-1.236-1.254,1.647-2.7,3.094-4.057,4.634-.734.831.451,2.068,1.185,1.237Z" transform="translate(-1878.058 -672.846)" fill="#968f71"/>
        </g>
        <g id="Group_1075" data-name="Group 1075" transform="translate(4.342 59.675)">
          <path id="Path_14552" data-name="Path 14552" d="M1879.666,685.209a11.864,11.864,0,0,0,3.7-4.231.838.838,0,1,0-1.433-.868,10.025,10.025,0,0,1-3.128,3.574c-.923.562-.064,2.087.858,1.525Z" transform="translate(-1878.412 -679.689)" fill="#968f71"/>
        </g>
        <g id="Group_1076" data-name="Group 1076" transform="translate(4.692 66.741)">
          <path id="Path_14553" data-name="Path 14553" d="M1880.031,691.763c1.639-.871,2.7-2.533,3.8-4.052.65-.9-.528-2.143-1.184-1.236-1.012,1.4-1.964,2.961-3.472,3.763-.948.5-.084,2.027.858,1.524Z" transform="translate(-1878.762 -686.16)" fill="#968f71"/>
        </g>
        <g id="Group_1077" data-name="Group 1077" transform="translate(4.383 73.285)">
          <path id="Path_14554" data-name="Path 14554" d="M1879.9,698a24.563,24.563,0,0,0,3.749-4.569.837.837,0,1,0-1.432-.868,22.775,22.775,0,0,1-3.5,4.2A.857.857,0,0,0,1879.9,698Z" transform="translate(-1878.453 -692.152)" fill="#968f71"/>
        </g>
        <g id="Group_1078" data-name="Group 1078" transform="translate(4.783 79.939)">
          <path id="Path_14555" data-name="Path 14555" d="M1879.453,703.88c2.187.559,3.621-2.729,4.551-4.341a.838.838,0,1,0-1.433-.868c-.432.749-.842,1.519-1.331,2.228-.252.366-.879,1.376-1.386,1.245-1.031-.263-1.429,1.473-.4,1.736Z" transform="translate(-1878.853 -698.245)" fill="#968f71"/>
        </g>
        <g id="Group_1079" data-name="Group 1079" transform="translate(5.367 88.485)">
          <path id="Path_14556" data-name="Path 14556" d="M1880.69,711.391c1.446-.889,2.264-2.512,3.367-3.8.72-.843-.463-2.08-1.185-1.236-.994,1.163-1.741,2.715-3.04,3.514-.921.566-.061,2.09.858,1.523Z" transform="translate(-1879.438 -706.07)" fill="#968f71"/>
        </g>
        <g id="Group_1080" data-name="Group 1080" transform="translate(5.729 96.132)">
          <path id="Path_14557" data-name="Path 14557" d="M1881.041,717.18a7.66,7.66,0,0,0,2.859-2.776.942.942,0,0,0-.318-1.218.8.8,0,0,0-1.114.348,5.963,5.963,0,0,1-2.284,2.122.943.943,0,0,0-.27,1.231.8.8,0,0,0,1.127.293Z" transform="translate(-1879.799 -713.073)" fill="#968f71"/>
        </g>
        <g id="Group_1081" data-name="Group 1081" transform="translate(2.079 1.757)">
          <path id="Path_14558" data-name="Path 14558" d="M1877.561,632.731a39.227,39.227,0,0,0,3.526-4.8.838.838,0,1,0-1.433-.868,36.416,36.416,0,0,1-3.277,4.433c-.727.84.457,2.076,1.184,1.237Z" transform="translate(-1876.149 -626.654)" fill="#968f71"/>
        </g>
      </g>
      <path id="Path_14559" data-name="Path 14559" d="M1886.978,676.431a9.17,9.17,0,0,0-6.2,1.186,10.3,10.3,0,0,0-2.418,1.755,11.412,11.412,0,0,0-1.446,1.6l-.979.2c-2.134-.085-5.715,2.151-6.136,4.446a6.513,6.513,0,0,0,3.747,7.112c2.529.952,5.858-.407,8.342-1a9.683,9.683,0,0,0,6.814-5.138C1890.429,683.38,1891.353,677.472,1886.978,676.431Z" transform="translate(-1869.694 -620.329)" fill="#c6bc93"/>
      <path id="Path_14560" data-name="Path 14560" d="M1889.468,677.9c-1.662.821-3.214,3.238-4.327,4.286a29.607,29.607,0,0,1-9.918,6.014,18.694,18.694,0,0,1-4.833,1.184,5.96,5.96,0,0,0,3.149,3.018c2.528.953,5.858-.407,8.341-1a9.68,9.68,0,0,0,6.814-5.139C1889.951,683.93,1890.779,680.18,1889.468,677.9Z" transform="translate(-1869.694 -620.179)" fill="#968f71" opacity="0.5"/>
      <g id="Group_1083" data-name="Group 1083" transform="translate(15.1 48.407)">
        <path id="Path_14561" data-name="Path 14561" d="M1886.369,676.817a21.382,21.382,0,0,0,2.41-6.358.825.825,0,1,0-1.589-.437,19.782,19.782,0,0,1-2.254,5.927.838.838,0,1,0,1.433.868Z" transform="translate(-1884.794 -669.371)" fill="#968f71"/>
      </g>
      <g id="Group_1084" data-name="Group 1084" transform="translate(20.13 45.379)">
        <path id="Path_14562" data-name="Path 14562" d="M1891.37,673.191a46.528,46.528,0,0,0,2.023-5.24c.4-1.057-1.034-1.934-1.433-.868a46.446,46.446,0,0,1-2.022,5.24c-.526,1,.909,1.869,1.432.868Z" transform="translate(-1889.824 -666.599)" fill="#968f71"/>
      </g>
      <g id="Group_1085" data-name="Group 1085" transform="translate(25.626 40.995)">
        <path id="Path_14563" data-name="Path 14563" d="M1896.852,669.131a21.4,21.4,0,0,0,1.773-5.448c.2-1.13-1.393-1.57-1.59-.437a19.475,19.475,0,0,1-1.617,5.017c-.484,1.026.949,1.894,1.434.868Z" transform="translate(-1895.32 -662.584)" fill="#968f71"/>
      </g>
      <g id="Group_1086" data-name="Group 1086" transform="translate(29.874 39.965)">
        <path id="Path_14564" data-name="Path 14564" d="M1901.066,666.967c.481-1.318.913-2.655,1.393-3.972.387-1.059-1.043-1.937-1.433-.868-.48,1.317-.913,2.655-1.393,3.972-.387,1.058,1.043,1.936,1.433.868Z" transform="translate(-1899.567 -661.641)" fill="#968f71"/>
      </g>
    </g>
  </g>
</svg>
